<?xml version="1.0" encoding="UTF-8" standalone="no"?>
<svg
   xmlns:dc="http://purl.org/dc/elements/1.1/"
   xmlns:cc="http://creativecommons.org/ns#"
   xmlns:rdf="http://www.w3.org/1999/02/22-rdf-syntax-ns#"
   xmlns:svg="http://www.w3.org/2000/svg"
   xmlns="http://www.w3.org/2000/svg"
   viewBox="0 0 400 400"
   height="400"
   width="400"
   xml:space="preserve"
   id="svg2"
   version="1.1"><metadata
     id="metadata8"><rdf:RDF><cc:Work
         rdf:about=""><dc:format>image/svg+xml</dc:format><dc:type
           rdf:resource="http://purl.org/dc/dcmitype/StillImage" /></cc:Work></rdf:RDF></metadata><defs
     id="defs6"><clipPath
       id="clipPath22"
       clipPathUnits="userSpaceOnUse"><path
         id="path20"
         d="M 0,300 H 300 V 0 H 0 Z" /></clipPath><clipPath
       id="clipPath94"
       clipPathUnits="userSpaceOnUse"><path
         id="path92"
         d="m 186.724,157.225 h 26.043 v -5.064 h -26.043 z m -4.5,10.61 H 156.18 v 5.064 h 26.044 z m 0,-16.004 H 156.18 v 5.064 h 26.044 z m 0,-16.005 H 156.18 v 5.063 h 26.044 z m -1.184,50.795 -55.368,32.018 v -29.735 h 25.518 v -5.064 h -25.518 v -10.941 h 25.518 v -5.064 h -25.518 v -10.94 h 25.518 v -5.064 h -25.541 l -0.09,-10.941 h 25.631 v -5.064 h -25.673 l -0.09,-10.941 h 25.763 v -5.064 h -25.804 l -0.24,-29.074 55.842,31.929 55.405,31.928 z" /></clipPath><linearGradient
       id="linearGradient104"
       spreadMethod="pad"
       gradientTransform="matrix(111.24601,0,0,-111.24601,125.14662,154.69296)"
       gradientUnits="userSpaceOnUse"
       y2="0"
       x2="1"
       y1="0"
       x1="0"><stop
         id="stop100"
         offset="0"
         style="stop-opacity:1;stop-color:#3f51b5" /><stop
         id="stop102"
         offset="1"
         style="stop-opacity:1;stop-color:#009447" /></linearGradient><clipPath
       id="clipPath122"
       clipPathUnits="userSpaceOnUse"><path
         id="path120"
         d="m 108.268,45.265 c -0.195,-0.017 -0.461,-0.085 -0.8,-0.204 v 0 c -0.254,-0.084 -0.482,-0.168 -0.686,-0.254 v 0 c -0.186,-0.084 -0.351,-0.164 -0.495,-0.241 v 0 c -0.144,-0.075 -0.215,-0.155 -0.215,-0.241 v 0 c -0.407,-0.999 -0.767,-1.926 -1.079,-2.78 v 0 c -0.314,-0.854 -0.571,-1.604 -0.775,-2.247 v 0 c -0.254,-0.746 -0.466,-1.43 -0.634,-2.057 v 0 c -0.525,-1.489 -0.924,-2.916 -1.194,-4.279 v 0 c -0.271,-1.361 -0.524,-2.585 -0.762,-3.668 v 0 c -0.118,-0.542 -0.249,-1.079 -0.393,-1.613 v 0 c -0.144,-0.533 -0.292,-1.027 -0.445,-1.485 v 0 c -0.152,-0.457 -0.296,-0.859 -0.431,-1.206 v 0 c -0.136,-0.346 -0.254,-0.605 -0.355,-0.775 v 0 C 99.919,24.047 99.83,23.902 99.737,23.784 v 0 C 99.644,23.666 99.554,23.606 99.47,23.606 v 0 c -0.084,0 -0.178,0.08 -0.279,0.241 v 0 c -0.102,0.161 -0.195,0.39 -0.279,0.686 v 0 c -0.085,0.296 -0.149,0.652 -0.191,1.067 v 0 c -0.041,0.414 -0.046,0.875 -0.013,1.384 v 0 c 0.052,0.592 0.17,1.235 0.356,1.929 v 0 c 0.186,0.694 0.465,1.431 0.838,2.209 v 0 c 0.135,0.271 0.271,0.525 0.406,0.761 v 0 c 0.136,0.238 0.186,0.449 0.153,0.636 v 0 c -0.017,0.05 -0.052,0.11 -0.102,0.177 v 0 c -0.051,0.051 -0.119,0.098 -0.203,0.14 v 0 c -0.085,0.042 -0.195,0.08 -0.331,0.114 v 0 C 99.183,32.29 98.671,31.613 98.29,30.919 v 0 C 97.908,30.225 97.626,29.59 97.439,29.014 v 0 c -0.22,-0.676 -0.372,-1.328 -0.457,-1.955 v 0 c -0.067,-0.812 -0.067,-1.561 0,-2.247 v 0 c 0.068,-0.685 0.224,-1.269 0.47,-1.751 v 0 c 0.246,-0.483 0.583,-0.851 1.015,-1.105 v 0 c 0.432,-0.254 0.978,-0.372 1.638,-0.355 v 0 c 0.643,0.016 1.168,0.292 1.574,0.825 v 0 c 0.406,0.533 0.736,1.185 0.99,1.955 v 0 c 0.254,0.77 0.466,1.587 0.635,2.45 v 0 c 0.169,0.863 0.338,1.634 0.508,2.311 v 0 c 0.102,0.422 0.237,0.986 0.406,1.688 v 0 c 0.169,0.702 0.351,1.469 0.546,2.298 v 0 c 0.195,0.829 0.397,1.692 0.61,2.589 v 0 c 0.211,0.899 0.418,1.753 0.622,2.565 v 0 c 0.203,0.813 0.398,1.553 0.584,2.222 v 0 c 0.185,0.669 0.355,1.198 0.507,1.587 v 0 c 0.034,-0.237 0.068,-0.496 0.102,-0.775 v 0 c 0.033,-0.279 0.042,-0.587 0.025,-0.927 v 0 c 0,-0.456 -0.034,-1.002 -0.101,-1.637 v 0 c -0.068,-0.635 -0.14,-1.316 -0.216,-2.044 v 0 c -0.076,-0.728 -0.152,-1.489 -0.228,-2.285 v 0 c -0.077,-0.796 -0.131,-1.583 -0.166,-2.361 v 0 c -0.067,-1.574 -0.017,-2.904 0.152,-3.986 v 0 c 0.17,-1.084 0.356,-1.812 0.559,-2.185 v 0 c 0.204,-0.406 0.5,-0.609 0.889,-0.609 v 0 c 0.101,0 0.208,0.017 0.317,0.051 v 0 c 0.11,0.034 0.241,0.076 0.394,0.127 v 0 l 1.016,0.787 c -0.034,0.118 -0.055,0.245 -0.064,0.381 v 0 c -0.008,0.135 -0.013,0.254 -0.013,0.356 v 0 0.355 c 0.034,0.355 0.157,0.863 0.368,1.523 v 0 c 0.212,0.661 0.478,1.406 0.8,2.235 v 0 c 0.322,0.829 0.686,1.704 1.092,2.628 v 0 c 0.406,0.922 0.821,1.824 1.244,2.703 v 0 c 0.255,0.543 0.521,1.106 0.8,1.689 v 0 c 0.279,0.584 0.554,1.146 0.825,1.689 v 0 c 0.271,0.542 0.529,1.049 0.774,1.523 v 0 c 0.246,0.473 0.453,0.88 0.623,1.219 v 0 c -0.034,-0.135 -0.064,-0.292 -0.089,-0.47 v 0 c -0.025,-0.178 -0.055,-0.368 -0.089,-0.571 v 0 c -0.05,-0.254 -0.177,-0.787 -0.381,-1.6 v 0 C 115.517,39.095 115.276,38.126 114.997,37 v 0 c -0.279,-1.126 -0.576,-2.327 -0.889,-3.605 v 0 c -0.314,-1.278 -0.601,-2.505 -0.864,-3.682 v 0 c -0.262,-1.177 -0.487,-2.231 -0.672,-3.161 v 0 c -0.186,-0.931 -0.297,-1.6 -0.33,-2.006 v 0 c -0.034,-0.44 0,-0.842 0.101,-1.206 v 0 c 0.102,-0.365 0.262,-0.677 0.483,-0.94 v 0 c 0.219,-0.263 0.49,-0.465 0.813,-0.609 v 0 c 0.321,-0.143 0.693,-0.207 1.116,-0.19 v 0 c 0.389,0 0.788,0.067 1.194,0.202 v 0 c 0.406,0.136 0.821,0.348 1.244,0.636 v 0 c -0.322,-0.034 -0.602,-0.009 -0.838,0.075 v 0 c -0.237,0.086 -0.44,0.216 -0.61,0.395 v 0 c -0.169,0.177 -0.304,0.384 -0.405,0.622 v 0 c -0.102,0.236 -0.179,0.482 -0.229,0.736 v 0 c -0.136,0.593 -0.186,1.278 -0.152,2.056 v 0 c 0.05,0.695 0.165,1.549 0.343,2.564 v 0 c 0.177,1.016 0.384,2.105 0.622,3.264 v 0 c 0.236,1.159 0.486,2.339 0.748,3.541 v 0 c 0.262,1.203 0.508,2.332 0.737,3.39 v 0 c 0.228,1.058 0.423,2.002 0.584,2.831 v 0 c 0.16,0.829 0.257,1.447 0.291,1.854 v 0 c 0.034,0.338 0.043,0.588 0.026,0.749 v 0 c -0.017,0.161 -0.043,0.275 -0.076,0.343 v 0 c -0.017,0.034 -0.072,0.092 -0.165,0.177 v 0 c -0.093,0.086 -0.25,0.152 -0.47,0.203 v 0 c -0.085,0.035 -0.25,0.029 -0.495,-0.012 v 0 c -0.245,-0.043 -0.508,-0.114 -0.787,-0.216 v 0 c -0.279,-0.102 -0.542,-0.22 -0.788,-0.356 v 0 c -0.244,-0.136 -0.418,-0.288 -0.52,-0.457 v 0 c -0.136,-0.238 -0.352,-0.66 -0.647,-1.269 v 0 c -0.297,-0.61 -0.618,-1.279 -0.965,-2.006 v 0 c -0.347,-0.728 -0.69,-1.456 -1.028,-2.183 v 0 c -0.339,-0.728 -0.61,-1.33 -0.813,-1.803 v 0 c -0.136,-0.356 -0.321,-0.8 -0.558,-1.334 v 0 c -0.238,-0.533 -0.491,-1.108 -0.762,-1.726 v 0 c -0.271,-0.618 -0.542,-1.261 -0.813,-1.93 v 0 c -0.271,-0.668 -0.517,-1.307 -0.736,-1.917 v 0 c -0.035,0.238 -0.063,0.479 -0.089,0.724 v 0 c -0.026,0.245 -0.038,0.512 -0.038,0.8 v 0 c -0.034,0.542 -0.022,1.222 0.038,2.044 v 0 c 0.059,0.821 0.127,1.663 0.203,2.526 v 0 c 0.077,0.863 0.149,1.689 0.216,2.475 v 0 c 0.068,0.788 0.093,1.419 0.077,1.892 v 0 c 0,0.355 -0.009,0.753 -0.026,1.193 v 0 c -0.017,0.373 -0.03,0.804 -0.038,1.296 v 0 c -0.009,0.491 -0.03,1.015 -0.063,1.574 v 0 c 0,0.135 -0.017,0.258 -0.052,0.368 v 0 c -0.034,0.11 -0.101,0.2 -0.202,0.266 v 0 c -0.082,0.054 -0.194,0.081 -0.336,0.081 v 0 c -0.035,0 -0.071,-10e-4 -0.109,-0.004" /></clipPath><linearGradient
       id="linearGradient134"
       spreadMethod="pad"
       gradientTransform="matrix(105.5117,0,0,-105.5117,96.931397,33.570976)"
       gradientUnits="userSpaceOnUse"
       y2="0"
       x2="1"
       y1="0"
       x1="0"><stop
         id="stop128"
         offset="0"
         style="stop-opacity:1;stop-color:#3f51b5" /><stop
         id="stop130"
         offset="0.297436"
         style="stop-opacity:1;stop-color:#3f51b5" /><stop
         id="stop132"
         offset="1"
         style="stop-opacity:1;stop-color:#00bf9c" /></linearGradient><clipPath
       id="clipPath144"
       clipPathUnits="userSpaceOnUse"><path
         id="path142"
         d="m 122.271,36.543 c -0.322,-0.076 -0.623,-0.187 -0.901,-0.33 v 0 c -0.28,-0.144 -0.525,-0.326 -0.737,-0.546 v 0 c -0.211,-0.22 -0.368,-0.473 -0.47,-0.761 v 0 c -0.287,-0.34 -0.537,-0.711 -0.748,-1.118 v 0 c -0.213,-0.406 -0.385,-0.812 -0.521,-1.219 v 0 c -0.135,-0.406 -0.242,-0.803 -0.317,-1.193 v 0 c -0.077,-0.39 -0.114,-0.745 -0.114,-1.067 v 0 c 0,-0.457 0.021,-0.947 0.062,-1.472 v 0 c 0.044,-0.525 0.162,-1.007 0.356,-1.447 v 0 c 0.194,-0.44 0.491,-0.809 0.889,-1.105 v 0 c 0.397,-0.296 0.943,-0.444 1.637,-0.444 v 0 c 0.593,0 1.139,0.114 1.638,0.343 v 0 c 0.5,0.228 0.948,0.545 1.346,0.952 v 0 c 0.398,0.406 0.741,0.888 1.029,1.447 v 0 c 0.287,0.559 0.515,1.159 0.685,1.803 v 0 c 0.508,0.169 1.041,0.423 1.6,0.761 v 0 c 0.558,0.339 1.074,0.686 1.548,1.042 v 0 c 0.474,0.355 0.884,0.685 1.232,0.989 v 0 c 0.346,0.306 0.562,0.508 0.648,0.61 v 0 c 0.152,0.187 0.245,0.355 0.279,0.508 v 0 c 0.033,0.152 0.025,0.27 -0.026,0.356 v 0 c -0.051,0.084 -0.135,0.118 -0.253,0.101 v 0 c -0.119,-0.017 -0.263,-0.101 -0.432,-0.254 v 0 c -0.204,-0.203 -0.475,-0.431 -0.813,-0.685 v 0 c -0.338,-0.255 -0.707,-0.504 -1.104,-0.75 v 0 c -0.398,-0.245 -0.808,-0.478 -1.231,-0.698 v 0 c -0.424,-0.22 -0.83,-0.406 -1.219,-0.558 v 0 c 0.016,0.136 0.033,0.3 0.05,0.495 v 0 c 0.016,0.194 0.026,0.359 0.026,0.495 v 0 c 0,0.66 -0.11,1.223 -0.331,1.688 v 0 c -0.219,0.466 -0.486,0.851 -0.799,1.156 v 0 c -0.314,0.304 -0.635,0.533 -0.965,0.685 v 0 c -0.33,0.153 -0.605,0.237 -0.825,0.254 v 0 c -0.051,0.017 -0.098,0.035 -0.14,0.051 v 0 c -0.043,0.016 -0.089,0.025 -0.14,0.025 v 0 c -0.304,0 -0.617,-0.038 -0.939,-0.114 m 0.419,-5.028 c -0.296,0.161 -0.512,0.36 -0.647,0.597 v 0 c -0.136,0.238 -0.221,0.504 -0.254,0.8 v 0 c -0.034,0.296 -0.051,0.581 -0.051,0.851 v 0 c 0,0.169 0.025,0.33 0.076,0.482 v 0 c 0.254,0.321 0.528,0.571 0.825,0.749 v 0 c 0.297,0.178 0.605,0.267 0.927,0.267 v 0 c 0.203,0 0.377,-0.089 0.521,-0.267 v 0 c 0.143,-0.178 0.261,-0.406 0.355,-0.685 v 0 c 0.093,-0.28 0.156,-0.589 0.19,-0.927 v 0 c 0.034,-0.339 0.034,-0.669 0,-0.99 v 0 c 0,-0.136 -0.022,-0.293 -0.063,-0.47 v 0 c -0.042,-0.178 -0.089,-0.377 -0.139,-0.597 v 0 c -0.086,-0.017 -0.171,-0.029 -0.254,-0.038 v 0 c -0.086,-0.008 -0.17,-0.013 -0.255,-0.013 v 0 c -0.525,0 -0.935,0.08 -1.231,0.241 m -1.841,-3.986 c -0.169,0.144 -0.305,0.33 -0.406,0.559 v 0 c -0.101,0.229 -0.17,0.491 -0.203,0.787 v 0 c -0.034,0.296 -0.051,0.596 -0.051,0.902 v 0 c 0,0.304 0.034,0.625 0.101,0.964 v 0 c 0.068,0.339 0.153,0.686 0.254,1.042 v 0 c 0.254,-0.594 0.614,-1.079 1.079,-1.461 v 0 c 0.466,-0.381 1.02,-0.571 1.663,-0.571 v 0 c 0.136,0 0.259,0.004 0.369,0.013 v 0 c 0.109,0.009 0.224,0.022 0.342,0.038 v 0 c -0.118,-0.322 -0.258,-0.631 -0.418,-0.927 v 0 c -0.161,-0.296 -0.343,-0.558 -0.546,-0.787 v 0 c -0.204,-0.229 -0.432,-0.415 -0.686,-0.559 v 0 c -0.254,-0.143 -0.533,-0.216 -0.838,-0.216 v 0 c -0.271,0 -0.49,0.073 -0.66,0.216" /></clipPath><linearGradient
       id="linearGradient156"
       spreadMethod="pad"
       gradientTransform="matrix(105.5117,0,0,-105.5117,96.931397,33.570976)"
       gradientUnits="userSpaceOnUse"
       y2="0"
       x2="1"
       y1="0"
       x1="0"><stop
         id="stop150"
         offset="0"
         style="stop-opacity:1;stop-color:#3f51b5" /><stop
         id="stop152"
         offset="0.297436"
         style="stop-opacity:1;stop-color:#3f51b5" /><stop
         id="stop154"
         offset="1"
         style="stop-opacity:1;stop-color:#00bf9c" /></linearGradient><clipPath
       id="clipPath166"
       clipPathUnits="userSpaceOnUse"><path
         id="path164"
         d="m 136.858,36.314 c -0.279,-0.177 -0.55,-0.427 -0.812,-0.749 v 0 c -0.263,-0.321 -0.496,-0.714 -0.699,-1.18 v 0 c -0.203,-0.466 -0.33,-0.987 -0.38,-1.562 v 0 c -0.017,-0.372 0.025,-0.694 0.127,-0.965 v 0 c -0.288,-0.524 -0.597,-1.032 -0.927,-1.523 v 0 c -0.331,-0.491 -0.644,-0.923 -0.94,-1.295 v 0 c -0.296,-0.372 -0.559,-0.673 -0.788,-0.901 v 0 c -0.227,-0.229 -0.385,-0.343 -0.468,-0.343 v 0 c -0.069,0 -0.162,0.085 -0.28,0.253 v 0 c -0.119,0.17 -0.229,0.42 -0.331,0.75 v 0 c -0.1,0.329 -0.177,0.736 -0.227,1.219 v 0 c -0.052,0.482 -0.052,1.045 0,1.688 v 0 c 0.033,0.372 0.088,0.761 0.164,1.168 v 0 c 0.077,0.406 0.157,0.796 0.242,1.168 v 0 c 0.084,0.372 0.164,0.707 0.241,1.003 v 0 c 0.076,0.296 0.13,0.52 0.164,0.672 v 0 c 0.052,0.17 0.043,0.297 -0.025,0.382 v 0 c -0.067,0.085 -0.164,0.139 -0.291,0.165 v 0 c -0.127,0.025 -0.268,0.029 -0.42,0.012 v 0 C 131.056,36.26 130.92,36.234 130.802,36.2 v 0 c -0.271,-0.067 -0.495,-0.152 -0.673,-0.254 v 0 c -0.177,-0.102 -0.33,-0.263 -0.457,-0.482 v 0 c -0.127,-0.22 -0.232,-0.53 -0.317,-0.926 v 0 c -0.085,-0.398 -0.161,-0.927 -0.228,-1.588 v 0 c -0.052,-0.66 -0.055,-1.409 -0.013,-2.246 v 0 c 0.041,-0.838 0.152,-1.626 0.329,-2.362 v 0 c 0.179,-0.736 0.432,-1.355 0.763,-1.854 v 0 c 0.33,-0.499 0.757,-0.749 1.282,-0.749 v 0 c 0.22,0 0.511,0.149 0.876,0.445 v 0 c 0.363,0.296 0.761,0.686 1.193,1.168 v 0 c 0.431,0.482 0.88,1.028 1.346,1.637 v 0 c 0.465,0.609 0.918,1.236 1.358,1.879 v 0 c 0.169,-0.05 0.33,-0.084 0.482,-0.102 v 0 c 0.153,-0.016 0.28,-0.025 0.382,-0.025 v 0 c 1.167,0 2.187,0.229 3.059,0.686 v 0 c 0.872,0.456 1.613,1.058 2.222,1.803 v 0 c 0.101,0.118 0.152,0.228 0.152,0.329 v 0 c 0,0.102 -0.034,0.178 -0.102,0.229 v 0 c -0.067,0.051 -0.152,0.076 -0.253,0.076 v 0 c -0.102,0 -0.204,-0.05 -0.305,-0.152 v 0 c -0.153,-0.136 -0.351,-0.308 -0.597,-0.521 v 0 c -0.245,-0.211 -0.542,-0.409 -0.888,-0.597 v 0 c -0.348,-0.186 -0.754,-0.346 -1.219,-0.482 v 0 c -0.466,-0.135 -0.986,-0.202 -1.562,-0.202 v 0 c -0.135,0 -0.253,0.016 -0.355,0.05 v 0 c -0.102,0.034 -0.195,0.067 -0.279,0.102 v 0 c 0.439,0.727 0.799,1.4 1.079,2.018 v 0 c 0.279,0.619 0.435,1.105 0.469,1.46 v 0 c 0.034,0.238 -0.004,0.47 -0.114,0.698 v 0 c -0.11,0.229 -0.386,0.343 -0.825,0.343 v 0 c -0.22,0 -0.47,-0.089 -0.749,-0.267" /></clipPath><linearGradient
       id="linearGradient178"
       spreadMethod="pad"
       gradientTransform="matrix(105.5117,0,0,-105.5117,96.931397,33.570976)"
       gradientUnits="userSpaceOnUse"
       y2="0"
       x2="1"
       y1="0"
       x1="0"><stop
         id="stop172"
         offset="0"
         style="stop-opacity:1;stop-color:#3f51b5" /><stop
         id="stop174"
         offset="0.297436"
         style="stop-opacity:1;stop-color:#3f51b5" /><stop
         id="stop176"
         offset="1"
         style="stop-opacity:1;stop-color:#00bf9c" /></linearGradient><clipPath
       id="clipPath188"
       clipPathUnits="userSpaceOnUse"><path
         id="path186"
         d="m 144.716,43.03 c -0.186,-0.034 -0.405,-0.149 -0.66,-0.342 v 0 c -0.254,-0.195 -0.466,-0.432 -0.635,-0.711 v 0 c -0.169,-0.28 -0.245,-0.575 -0.228,-0.889 v 0 c 0.017,-0.313 0.203,-0.606 0.559,-0.876 v 0 c 0.117,-0.102 0.27,-0.136 0.457,-0.102 v 0 c 0.185,0.035 0.368,0.106 0.545,0.216 v 0 c 0.178,0.11 0.339,0.254 0.483,0.431 v 0 c 0.144,0.179 0.241,0.36 0.292,0.547 v 0 c 0.05,0.169 0.071,0.364 0.063,0.584 v 0 c -0.009,0.219 -0.047,0.418 -0.114,0.596 v 0 c -0.068,0.178 -0.165,0.322 -0.292,0.432 v 0 c -0.097,0.084 -0.211,0.126 -0.342,0.126 v 0 c -0.041,0 -0.083,-0.004 -0.128,-0.012 m -0.775,-6.639 c -0.211,-0.009 -0.443,-0.035 -0.697,-0.077 v 0 c -0.255,-0.041 -0.5,-0.097 -0.737,-0.165 v 0 c -0.237,-0.067 -0.398,-0.152 -0.483,-0.253 v 0 c -0.27,-0.34 -0.512,-0.855 -0.723,-1.549 v 0 c -0.212,-0.695 -0.385,-1.426 -0.52,-2.196 v 0 c -0.136,-0.771 -0.229,-1.524 -0.279,-2.26 v 0 c -0.052,-0.736 -0.052,-1.317 0,-1.74 v 0 c 0.016,-0.288 0.101,-0.562 0.253,-0.825 v 0 c 0.153,-0.262 0.343,-0.491 0.572,-0.685 v 0 c 0.229,-0.194 0.482,-0.347 0.761,-0.457 v 0 c 0.279,-0.111 0.563,-0.157 0.851,-0.14 v 0 c 0.355,0.016 0.816,0.237 1.384,0.66 v 0 c 0.566,0.423 1.146,0.936 1.739,1.536 v 0 c 0.592,0.6 1.151,1.228 1.676,1.879 v 0 c 0.524,0.651 0.922,1.215 1.193,1.689 v 0 c 0.118,0.202 0.174,0.381 0.165,0.533 v 0 c -0.008,0.153 -0.06,0.262 -0.152,0.33 v 0 c -0.093,0.067 -0.212,0.076 -0.356,0.025 v 0 c -0.144,-0.05 -0.283,-0.161 -0.418,-0.33 v 0 c -0.221,-0.322 -0.559,-0.749 -1.016,-1.282 v 0 c -0.458,-0.533 -0.953,-1.057 -1.485,-1.574 v 0 c -0.534,-0.517 -1.059,-0.961 -1.575,-1.333 v 0 c -0.516,-0.372 -0.944,-0.559 -1.282,-0.559 v 0 c -0.119,0 -0.229,0.038 -0.33,0.115 v 0 c -0.102,0.075 -0.195,0.216 -0.279,0.418 v 0 c -0.085,0.169 -0.111,0.415 -0.077,0.736 v 0 c 0.034,0.322 0.097,0.664 0.191,1.029 v 0 c 0.093,0.365 0.199,0.736 0.318,1.117 v 0 c 0.118,0.382 0.219,0.724 0.304,1.029 v 0 c 0.084,0.304 0.211,0.698 0.381,1.18 v 0 c 0.169,0.483 0.33,0.953 0.482,1.41 v 0 c 0.153,0.456 0.28,0.854 0.381,1.192 v 0 c 0.101,0.34 0.144,0.517 0.128,0.534 v 0 c -0.024,0.011 -0.087,0.017 -0.191,0.017 v 0 c -0.05,0 -0.11,-0.001 -0.179,-0.004" /></clipPath><linearGradient
       id="linearGradient200"
       spreadMethod="pad"
       gradientTransform="matrix(105.5117,0,0,-105.5117,96.931397,33.570976)"
       gradientUnits="userSpaceOnUse"
       y2="0"
       x2="1"
       y1="0"
       x1="0"><stop
         id="stop194"
         offset="0"
         style="stop-opacity:1;stop-color:#3f51b5" /><stop
         id="stop196"
         offset="0.297436"
         style="stop-opacity:1;stop-color:#3f51b5" /><stop
         id="stop198"
         offset="1"
         style="stop-opacity:1;stop-color:#00bf9c" /></linearGradient><clipPath
       id="clipPath210"
       clipPathUnits="userSpaceOnUse"><path
         id="path208"
         d="m 150.772,36.353 c -0.669,-0.423 -1.269,-0.957 -1.803,-1.6 v 0 c -0.533,-0.644 -0.982,-1.349 -1.346,-2.12 v 0 c -0.364,-0.77 -0.579,-1.502 -0.647,-2.197 v 0 c -0.084,-0.846 -0.021,-1.565 0.19,-2.158 v 0 c 0.212,-0.592 0.495,-1.075 0.851,-1.447 v 0 c 0.355,-0.372 0.749,-0.647 1.18,-0.826 v 0 c 0.433,-0.177 0.834,-0.266 1.207,-0.266 v 0 c 0.711,0 1.443,0.169 2.196,0.508 v 0 c 0.753,0.339 1.489,0.784 2.209,1.334 v 0 c 0.719,0.549 1.4,1.176 2.044,1.878 v 0 c 0.643,0.702 1.219,1.425 1.726,2.171 v 0 c 0.118,0.187 0.177,0.352 0.177,0.495 v 0 c 0,0.144 -0.037,0.245 -0.113,0.305 v 0 c -0.077,0.059 -0.178,0.076 -0.305,0.05 v 0 c -0.127,-0.025 -0.25,-0.105 -0.368,-0.241 v 0 c -0.34,-0.406 -0.766,-0.888 -1.283,-1.447 v 0 c -0.516,-0.558 -1.074,-1.096 -1.676,-1.612 v 0 c -0.6,-0.517 -1.215,-0.956 -1.84,-1.321 v 0 c -0.626,-0.364 -1.228,-0.546 -1.803,-0.546 v 0 c -0.271,0 -0.537,0.039 -0.799,0.115 v 0 c -0.263,0.076 -0.495,0.203 -0.698,0.38 v 0 c -0.204,0.178 -0.373,0.411 -0.508,0.699 v 0 c -0.136,0.288 -0.212,0.643 -0.229,1.066 v 0 c 0.254,0.186 0.55,0.393 0.889,0.622 v 0 c 0.338,0.229 0.694,0.47 1.066,0.724 v 0 c 0.339,0.237 0.698,0.499 1.079,0.787 v 0 c 0.381,0.288 0.74,0.609 1.079,0.965 v 0 c 0.339,0.355 0.631,0.753 0.876,1.193 v 0 c 0.245,0.44 0.393,0.923 0.445,1.448 v 0 c 0.034,0.473 -0.094,0.872 -0.382,1.193 v 0 c -0.288,0.321 -0.752,0.482 -1.396,0.482 v 0 c -0.677,0 -1.35,-0.211 -2.018,-0.634 m -1.003,-3.391 c 0.237,0.55 0.49,1.017 0.761,1.397 v 0 c 0.271,0.381 0.546,0.674 0.826,0.876 v 0 c 0.279,0.203 0.52,0.305 0.723,0.305 v 0 c 0.187,0 0.331,-0.072 0.431,-0.216 v 0 c 0.102,-0.143 0.136,-0.377 0.102,-0.698 v 0 c -0.034,-0.304 -0.194,-0.669 -0.482,-1.092 v 0 c -0.288,-0.423 -0.796,-0.914 -1.523,-1.472 v 0 c -0.238,-0.187 -0.474,-0.36 -0.711,-0.521 v 0 c -0.238,-0.161 -0.457,-0.317 -0.66,-0.469 v 0 c 0.118,0.711 0.295,1.341 0.533,1.89" /></clipPath><linearGradient
       id="linearGradient222"
       spreadMethod="pad"
       gradientTransform="matrix(105.5117,0,0,-105.5117,96.931397,33.570976)"
       gradientUnits="userSpaceOnUse"
       y2="0"
       x2="1"
       y1="0"
       x1="0"><stop
         id="stop216"
         offset="0"
         style="stop-opacity:1;stop-color:#3f51b5" /><stop
         id="stop218"
         offset="0.297436"
         style="stop-opacity:1;stop-color:#3f51b5" /><stop
         id="stop220"
         offset="1"
         style="stop-opacity:1;stop-color:#00bf9c" /></linearGradient><clipPath
       id="clipPath232"
       clipPathUnits="userSpaceOnUse"><path
         id="path230"
         d="m 164.317,44.77 c -0.948,-0.517 -1.811,-1.197 -2.59,-2.044 v 0 c -0.778,-0.847 -1.469,-1.825 -2.069,-2.933 v 0 c -0.6,-1.108 -1.113,-2.259 -1.536,-3.453 v 0 c -0.423,-1.193 -0.749,-2.383 -0.977,-3.567 v 0 c -0.229,-1.185 -0.36,-2.285 -0.394,-3.302 v 0 c -0.033,-1.082 0.072,-2.103 0.317,-3.059 v 0 c 0.246,-0.956 0.609,-1.79 1.093,-2.501 v 0 c 0.482,-0.711 1.065,-1.27 1.751,-1.676 v 0 c 0.686,-0.406 1.452,-0.609 2.298,-0.609 v 0 c 0.676,0 1.32,0.143 1.929,0.431 v 0 c 0.61,0.289 1.172,0.664 1.689,1.131 v 0 c 0.516,0.465 0.982,0.986 1.397,1.561 v 0 c 0.414,0.575 0.765,1.151 1.053,1.726 v 0 c 0.102,0.22 0.136,0.411 0.102,0.572 v 0 c -0.034,0.161 -0.102,0.279 -0.203,0.355 v 0 c -0.102,0.077 -0.22,0.089 -0.356,0.038 v 0 c -0.136,-0.05 -0.263,-0.186 -0.381,-0.406 v 0 c -0.169,-0.305 -0.41,-0.656 -0.723,-1.054 v 0 c -0.313,-0.397 -0.686,-0.783 -1.117,-1.154 v 0 c -0.432,-0.373 -0.911,-0.686 -1.435,-0.94 v 0 c -0.524,-0.254 -1.083,-0.381 -1.675,-0.381 v 0 c -0.373,0 -0.746,0.093 -1.118,0.279 v 0 c -0.372,0.187 -0.707,0.492 -1.003,0.914 v 0 c -0.296,0.423 -0.525,0.965 -0.686,1.625 v 0 c -0.161,0.661 -0.224,1.465 -0.19,2.412 v 0 c 0.085,2.099 0.385,4.088 0.901,5.967 v 0 c 0.517,1.879 1.152,3.526 1.905,4.939 v 0 c 0.753,1.412 1.57,2.535 2.45,3.364 v 0 c 0.88,0.829 1.718,1.244 2.513,1.244 v 0 c 0.407,0 0.772,-0.161 1.093,-0.482 v 0 c 0.321,-0.321 0.465,-0.83 0.431,-1.524 v 0 c -0.05,-0.711 -0.152,-1.354 -0.304,-1.929 v 0 c -0.136,-0.508 -0.334,-0.995 -0.597,-1.46 v 0 c -0.263,-0.466 -0.623,-0.791 -1.079,-0.978 v 0 c 0.152,-0.39 0.317,-0.685 0.495,-0.889 v 0 c 0.177,-0.203 0.351,-0.355 0.52,-0.457 v 0 c 0.186,-0.118 0.381,-0.186 0.584,-0.203 v 0 c 0.423,0 0.8,0.123 1.13,0.369 v 0 c 0.33,0.245 0.609,0.575 0.838,0.99 v 0 c 0.228,0.415 0.406,0.884 0.533,1.409 v 0 c 0.127,0.524 0.207,1.066 0.242,1.625 v 0 c 0.016,0.593 -0.035,1.177 -0.153,1.752 v 0 c -0.118,0.575 -0.326,1.092 -0.622,1.549 v 0 c -0.296,0.456 -0.685,0.825 -1.168,1.104 v 0 c -0.482,0.279 -1.071,0.419 -1.765,0.419 v 0 c -1.133,0 -2.175,-0.258 -3.123,-0.774" /></clipPath><linearGradient
       id="linearGradient244"
       spreadMethod="pad"
       gradientTransform="matrix(105.5117,0,0,-105.5117,96.931397,33.570976)"
       gradientUnits="userSpaceOnUse"
       y2="0"
       x2="1"
       y1="0"
       x1="0"><stop
         id="stop238"
         offset="0"
         style="stop-opacity:1;stop-color:#3f51b5" /><stop
         id="stop240"
         offset="0.297436"
         style="stop-opacity:1;stop-color:#3f51b5" /><stop
         id="stop242"
         offset="1"
         style="stop-opacity:1;stop-color:#00bf9c" /></linearGradient><clipPath
       id="clipPath254"
       clipPathUnits="userSpaceOnUse"><path
         id="path252"
         d="m 175.464,36.632 c -0.593,-0.305 -1.193,-0.758 -1.803,-1.358 v 0 c -0.609,-0.601 -1.171,-1.325 -1.688,-2.171 v 0 c -0.517,-0.847 -0.893,-1.787 -1.131,-2.819 v 0 c -0.185,-0.761 -0.253,-1.417 -0.202,-1.967 v 0 c 0.05,-0.55 0.169,-0.999 0.355,-1.347 v 0 c 0.187,-0.346 0.415,-0.6 0.685,-0.761 v 0 c 0.271,-0.161 0.525,-0.241 0.763,-0.241 v 0 c 0.507,0.034 1.015,0.144 1.522,0.33 v 0 c 0.441,0.169 0.906,0.436 1.397,0.8 v 0 c 0.492,0.364 0.94,0.885 1.346,1.562 v 0 c -0.016,-0.458 0.012,-0.838 0.089,-1.143 v 0 c 0.076,-0.305 0.157,-0.55 0.241,-0.737 v 0 c 0.102,-0.219 0.229,-0.389 0.381,-0.507 v 0 c 0.152,-0.102 0.33,-0.175 0.533,-0.216 v 0 c 0.203,-0.043 0.42,-0.055 0.648,-0.038 v 0 c 0.229,0.016 0.454,0.059 0.673,0.127 v 0 c 0.22,0.066 0.416,0.152 0.583,0.254 v 0 c 0.255,0.168 0.572,0.461 0.954,0.875 v 0 c 0.381,0.415 0.769,0.873 1.167,1.371 v 0 c 0.397,0.5 0.783,0.999 1.155,1.499 v 0 c 0.373,0.498 0.678,0.918 0.914,1.256 v 0 c 0.203,0.271 0.326,0.509 0.369,0.711 v 0 c 0.041,0.203 0.029,0.355 -0.039,0.457 v 0 c -0.067,0.102 -0.168,0.14 -0.304,0.115 v 0 c -0.135,-0.026 -0.27,-0.115 -0.407,-0.267 v 0 c -0.102,-0.136 -0.266,-0.346 -0.494,-0.634 v 0 c -0.229,-0.289 -0.486,-0.619 -0.775,-0.991 v 0 C 182.109,30.42 181.8,30.034 181.47,29.637 v 0 c -0.331,-0.398 -0.648,-0.762 -0.953,-1.092 v 0 c -0.305,-0.33 -0.593,-0.601 -0.863,-0.812 v 0 c -0.271,-0.213 -0.491,-0.318 -0.661,-0.318 v 0 c -0.203,0 -0.359,0.047 -0.469,0.139 v 0 c -0.111,0.093 -0.191,0.216 -0.242,0.369 v 0 c -0.051,0.153 -0.08,0.317 -0.087,0.495 v 0 c -0.01,0.178 -0.005,0.342 0.011,0.495 v 0 c 0.051,0.254 0.094,0.466 0.127,0.635 v 0 c 0.035,0.169 0.064,0.318 0.09,0.445 v 0 l 0.076,0.38 c 0.025,0.127 0.055,0.267 0.088,0.419 v 0 c 0.17,0.778 0.304,1.413 0.406,1.904 v 0 c 0.102,0.492 0.178,0.88 0.228,1.168 v 0 c 0.052,0.288 0.077,0.486 0.077,0.597 v 0 c 0,0.111 -0.008,0.182 -0.025,0.216 v 0 c -0.033,0.016 -0.102,0.025 -0.204,0.025 v 0 c -0.083,0 -0.207,-0.009 -0.367,-0.025 v 0 c -0.162,-0.017 -0.359,-0.051 -0.597,-0.102 v 0 c 0.355,0.542 0.495,0.978 0.419,1.308 v 0 c -0.076,0.33 -0.232,0.58 -0.471,0.749 v 0 c -0.287,0.186 -0.659,0.321 -1.117,0.406 v 0 c -0.039,0.003 -0.079,0.005 -0.121,0.005 v 0 c -0.368,0 -0.819,-0.137 -1.351,-0.411 m -2.31,-8.43 c -0.102,0.102 -0.17,0.317 -0.204,0.648 v 0 c -0.034,0.33 -0.021,0.714 0.038,1.155 v 0 c 0.06,0.44 0.166,0.91 0.318,1.41 v 0 c 0.152,0.498 0.355,0.968 0.609,1.408 v 0 c 0.609,1.066 1.147,1.799 1.612,2.197 v 0 c 0.466,0.397 0.791,0.52 0.978,0.368 v 0 c 0.051,-0.068 0.085,-0.161 0.101,-0.28 v 0 c 0.017,-0.102 0.013,-0.241 -0.013,-0.418 v 0 c -0.025,-0.179 -0.105,-0.403 -0.241,-0.674 v 0 c 0.136,0.035 0.271,0.06 0.407,0.077 v 0 c 0.135,0.016 0.246,0.042 0.33,0.076 v 0 c 0.101,0.034 0.195,0.06 0.279,0.076 v 0 c 0.069,0.017 0.081,-0.114 0.039,-0.393 v 0 c -0.043,-0.279 -0.105,-0.631 -0.192,-1.054 v 0 c -0.083,-0.423 -0.185,-0.863 -0.304,-1.321 v 0 c -0.118,-0.457 -0.219,-0.854 -0.305,-1.193 v 0 c -0.016,-0.085 -0.088,-0.22 -0.215,-0.406 v 0 c -0.127,-0.187 -0.289,-0.39 -0.482,-0.609 v 0 c -0.195,-0.221 -0.416,-0.432 -0.661,-0.636 v 0 c -0.245,-0.202 -0.491,-0.368 -0.736,-0.494 v 0 c -0.245,-0.127 -0.486,-0.195 -0.724,-0.204 v 0 c -0.01,0 -0.02,0 -0.03,0 v 0 c -0.225,0 -0.426,0.088 -0.604,0.267" /></clipPath><linearGradient
       id="linearGradient266"
       spreadMethod="pad"
       gradientTransform="matrix(105.5117,0,0,-105.5117,96.931397,33.570976)"
       gradientUnits="userSpaceOnUse"
       y2="0"
       x2="1"
       y1="0"
       x1="0"><stop
         id="stop260"
         offset="0"
         style="stop-opacity:1;stop-color:#3f51b5" /><stop
         id="stop262"
         offset="0.297436"
         style="stop-opacity:1;stop-color:#3f51b5" /><stop
         id="stop264"
         offset="1"
         style="stop-opacity:1;stop-color:#00bf9c" /></linearGradient><clipPath
       id="clipPath276"
       clipPathUnits="userSpaceOnUse"><path
         id="path274"
         d="m 186.814,37.761 c -0.339,-0.127 -0.67,-0.316 -0.991,-0.57 v 0 c -0.321,-0.254 -0.6,-0.538 -0.838,-0.851 v 0 c -0.237,-0.314 -0.39,-0.588 -0.457,-0.825 v 0 c -0.085,-0.288 -0.063,-0.542 0.064,-0.762 v 0 c 0.127,-0.22 0.174,-0.397 0.139,-0.533 v 0 c -0.016,-0.051 -0.11,-0.199 -0.279,-0.445 v 0 c -0.169,-0.245 -0.355,-0.524 -0.559,-0.838 v 0 c -0.203,-0.313 -0.405,-0.618 -0.609,-0.913 v 0 c -0.203,-0.296 -0.355,-0.512 -0.457,-0.648 v 0 c -0.136,-0.203 -0.199,-0.377 -0.19,-0.52 v 0 c 0.008,-0.144 0.054,-0.254 0.139,-0.331 v 0 c 0.085,-0.076 0.19,-0.101 0.317,-0.076 v 0 c 0.128,0.026 0.259,0.114 0.395,0.267 v 0 c 0.084,0.102 0.236,0.292 0.457,0.571 v 0 c 0.219,0.28 0.452,0.584 0.697,0.914 v 0 c 0.246,0.33 0.475,0.647 0.686,0.952 v 0 c 0.212,0.305 0.359,0.525 0.445,0.661 v 0 c 0.034,-0.068 0.08,-0.191 0.139,-0.369 v 0 c 0.059,-0.177 0.123,-0.359 0.191,-0.545 v 0 c 0.066,-0.22 0.152,-0.458 0.254,-0.711 v 0 c 0.118,-0.34 0.262,-0.712 0.431,-1.117 v 0 c 0.169,-0.407 0.327,-0.81 0.47,-1.206 v 0 c 0.144,-0.398 0.25,-0.772 0.317,-1.118 v 0 c 0.068,-0.347 0.068,-0.613 0,-0.799 v 0 c -0.067,-0.188 -0.173,-0.34 -0.317,-0.458 v 0 c -0.143,-0.118 -0.296,-0.212 -0.458,-0.279 v 0 c -0.161,-0.067 -0.321,-0.101 -0.482,-0.101 v 0 c -0.161,0 -0.292,0.034 -0.393,0.101 v 0 c -0.085,0.067 -0.178,0.194 -0.279,0.381 v 0 c -0.086,0.168 -0.195,0.402 -0.331,0.698 v 0 c -0.135,0.296 -0.288,0.707 -0.457,1.232 v 0 c -0.202,-0.068 -0.381,-0.127 -0.533,-0.179 v 0 c -0.153,-0.05 -0.27,-0.101 -0.355,-0.152 v 0 c -0.102,-0.067 -0.186,-0.126 -0.254,-0.178 v 0 c -0.169,-0.152 -0.296,-0.288 -0.381,-0.406 v 0 c -0.085,-0.118 -0.178,-0.279 -0.28,-0.482 v 0 c -0.084,-0.152 -0.072,-0.372 0.038,-0.66 v 0 c 0.111,-0.289 0.28,-0.58 0.509,-0.876 v 0 c 0.228,-0.296 0.507,-0.555 0.838,-0.774 v 0 c 0.329,-0.22 0.672,-0.331 1.027,-0.331 v 0 c 0.509,0 0.995,0.136 1.46,0.406 v 0 c 0.466,0.271 0.88,0.597 1.245,0.979 v 0 c 0.364,0.38 0.669,0.773 0.913,1.179 v 0 c 0.246,0.407 0.395,0.754 0.445,1.042 v 0 c 0.034,0.186 0.009,0.415 -0.076,0.686 v 0 c -0.085,0.269 -0.194,0.562 -0.33,0.875 v 0 c -0.136,0.313 -0.288,0.631 -0.457,0.952 v 0 c -0.169,0.322 -0.33,0.635 -0.482,0.94 v 0 c -0.118,0.238 -0.229,0.499 -0.331,0.787 v 0 c -0.084,0.237 -0.173,0.517 -0.266,0.838 v 0 c -0.093,0.321 -0.165,0.676 -0.216,1.066 v 0 c 0.254,0.305 0.448,0.555 0.584,0.75 v 0 c 0.136,0.194 0.238,0.359 0.305,0.495 v 0 c 0.067,0.136 0.118,0.245 0.152,0.33 v 0 c 0.034,0.168 -0.017,0.334 -0.152,0.495 v 0 c -0.136,0.161 -0.314,0.309 -0.534,0.444 v 0 c -0.139,0.07 -0.288,0.105 -0.446,0.105 v 0 c -0.147,0 -0.303,-0.031 -0.467,-0.093" /></clipPath><linearGradient
       id="linearGradient288"
       spreadMethod="pad"
       gradientTransform="matrix(105.5117,0,0,-105.5117,96.931397,33.570976)"
       gradientUnits="userSpaceOnUse"
       y2="0"
       x2="1"
       y1="0"
       x1="0"><stop
         id="stop282"
         offset="0"
         style="stop-opacity:1;stop-color:#3f51b5" /><stop
         id="stop284"
         offset="0.297436"
         style="stop-opacity:1;stop-color:#3f51b5" /><stop
         id="stop286"
         offset="1"
         style="stop-opacity:1;stop-color:#00bf9c" /></linearGradient><clipPath
       id="clipPath298"
       clipPathUnits="userSpaceOnUse"><path
         id="path296"
         d="m 196.665,44.312 c -0.203,-0.025 -0.394,-0.067 -0.571,-0.126 v 0 c -0.178,-0.06 -0.292,-0.131 -0.343,-0.217 v 0 c -0.169,-0.236 -0.359,-0.656 -0.572,-1.256 v 0 c -0.211,-0.601 -0.427,-1.308 -0.647,-2.12 v 0 c -0.288,-0.051 -0.58,-0.093 -0.875,-0.127 v 0 c -0.296,-0.034 -0.606,-0.06 -0.927,-0.077 v 0 c -0.441,-0.016 -0.847,-0.012 -1.219,0.013 v 0 c -0.373,0.026 -0.72,0.055 -1.041,0.089 v 0 c -0.102,0 -0.216,-0.047 -0.343,-0.139 v 0 C 190,40.259 189.895,40.148 189.81,40.021 v 0 c -0.085,-0.127 -0.136,-0.254 -0.153,-0.38 v 0 c -0.016,-0.127 0.042,-0.225 0.178,-0.292 v 0 c 0.237,-0.119 0.597,-0.241 1.079,-0.368 v 0 c 0.483,-0.127 0.994,-0.191 1.537,-0.191 v 0 c 0.236,0 0.498,0.016 0.786,0.05 v 0 c 0.288,0.035 0.575,0.068 0.863,0.102 v 0 c -0.236,-0.981 -0.461,-2.001 -0.672,-3.059 v 0 c -0.212,-1.057 -0.402,-2.048 -0.572,-2.971 v 0 c -0.169,-0.922 -0.305,-1.735 -0.405,-2.437 v 0 c -0.102,-0.702 -0.162,-1.19 -0.179,-1.461 v 0 c -0.034,-0.32 -0.009,-0.672 0.077,-1.053 v 0 c 0.085,-0.38 0.232,-0.732 0.444,-1.054 v 0 c 0.212,-0.321 0.504,-0.593 0.876,-0.812 v 0 c 0.372,-0.22 0.838,-0.331 1.396,-0.331 v 0 c 0.39,0 0.872,0.213 1.447,0.636 v 0 c 0.576,0.423 1.168,0.96 1.778,1.612 v 0 c 0.609,0.651 1.19,1.35 1.739,2.095 v 0 c 0.55,0.745 0.994,1.438 1.333,2.082 v 0 c 0.102,0.203 0.149,0.364 0.14,0.482 v 0 c -0.009,0.118 -0.047,0.203 -0.114,0.254 v 0 c -0.068,0.051 -0.157,0.064 -0.267,0.037 v 0 c -0.111,-0.025 -0.199,-0.088 -0.266,-0.189 v 0 c -0.102,-0.136 -0.28,-0.369 -0.534,-0.699 v 0 c -0.254,-0.33 -0.55,-0.698 -0.888,-1.104 v 0 c -0.34,-0.407 -0.708,-0.822 -1.105,-1.245 v 0 c -0.397,-0.422 -0.791,-0.812 -1.18,-1.167 v 0 c -0.39,-0.356 -0.766,-0.639 -1.131,-0.851 v 0 c -0.363,-0.212 -0.672,-0.301 -0.926,-0.267 v 0 c -0.321,0.017 -0.593,0.119 -0.812,0.305 v 0 c -0.187,0.169 -0.343,0.445 -0.47,0.825 v 0 c -0.127,0.381 -0.14,0.936 -0.038,1.664 v 0 c 0.44,1.015 0.838,1.971 1.193,2.869 v 0 c 0.355,0.897 0.66,1.692 0.914,2.387 v 0 c 0.288,0.795 0.542,1.531 0.761,2.208 v 0 c 0.102,0.288 0.182,0.563 0.242,0.826 v 0 c 0.06,0.262 0.123,0.529 0.19,0.799 v 0 c 0.136,0 0.267,0.004 0.393,0.013 v 0 c 0.127,0.008 0.242,0.013 0.343,0.013 v 0 c 0.542,0 1.017,-0.017 1.422,-0.051 v 0 c 0.406,-0.035 0.758,-0.068 1.054,-0.102 v 0 c 0.296,-0.034 0.55,-0.076 0.762,-0.127 v 0 c 0.212,-0.05 0.402,-0.085 0.571,-0.101 v 0 c 0.169,-0.034 0.321,0 0.457,0.101 v 0 c 0.136,0.102 0.233,0.225 0.292,0.368 v 0 c 0.059,0.144 0.086,0.284 0.076,0.42 v 0 c -0.009,0.135 -0.072,0.219 -0.19,0.253 v 0 c -0.118,0.035 -0.296,0.098 -0.533,0.191 v 0 c -0.238,0.093 -0.55,0.186 -0.94,0.279 v 0 c -0.389,0.093 -0.859,0.177 -1.409,0.254 v 0 c -0.55,0.076 -1.181,0.114 -1.892,0.114 v 0 c 0.169,0.863 0.263,1.574 0.28,2.133 v 0 c 0.016,0.558 -0.017,0.906 -0.102,1.041 v 0 c -0.084,0.101 -0.219,0.165 -0.406,0.19 v 0 c -0.093,0.013 -0.189,0.019 -0.286,0.019 v 0 c -0.097,0 -0.196,-0.006 -0.298,-0.019" /></clipPath><linearGradient
       id="linearGradient310"
       spreadMethod="pad"
       gradientTransform="matrix(105.5117,0,0,-105.5117,96.931397,33.570976)"
       gradientUnits="userSpaceOnUse"
       y2="0"
       x2="1"
       y1="0"
       x1="0"><stop
         id="stop304"
         offset="0"
         style="stop-opacity:1;stop-color:#3f51b5" /><stop
         id="stop306"
         offset="0.297436"
         style="stop-opacity:1;stop-color:#3f51b5" /><stop
         id="stop308"
         offset="1"
         style="stop-opacity:1;stop-color:#00bf9c" /></linearGradient></defs><g
     transform="matrix(1.3333333,0,0,-1.3333333,0,400)"
     id="g10"><path
       id="path12"
       style="fill:#191919;fill-opacity:1;fill-rule:nonzero;stroke:none"
       d="M 55.678,0 H 244.392 V 300 H 55.678 Z" /><path
       id="path14"
       style="fill:#212121;fill-opacity:1;fill-rule:nonzero;stroke:none"
       d="M 244.393,62.587 H 55.679 v 181.652 h 188.714 z" /><g
       id="g16"><g
         clip-path="url(#clipPath22)"
         id="g18"><g
           transform="translate(55.6787)"
           id="g24"><path
             id="path26"
             style="fill:#111111;fill-opacity:1;fill-rule:nonzero;stroke:none"
             d="m 0,0 h -49.679 c -3.313,0 -6,2.687 -6,6 v 288 c 0,3.313 2.687,6 6,6 H 0 Z" /></g><g
           transform="translate(37.0918,243.7612)"
           id="g28"><path
             id="path30"
             style="fill:#191919;fill-opacity:1;fill-rule:nonzero;stroke:none"
             d="m 0,0 h -18.505 c -3.313,0 -6,2.686 -6,6 v 18.504 c 0,3.314 2.687,6 6,6 H 0 c 3.313,0 6,-2.686 6,-6 V 6 C 6,2.686 3.313,0 0,0" /></g><g
           transform="translate(37.0918,192.2437)"
           id="g32"><path
             id="path34"
             style="fill:#191919;fill-opacity:1;fill-rule:nonzero;stroke:none"
             d="m 0,0 h -18.505 c -3.313,0 -6,2.687 -6,6 v 18.505 c 0,3.313 2.687,6 6,6 H 0 c 3.313,0 6,-2.687 6,-6 V 6 C 6,2.687 3.313,0 0,0" /></g><g
           transform="translate(37.0918,140.7266)"
           id="g36"><path
             id="path38"
             style="fill:#191919;fill-opacity:1;fill-rule:nonzero;stroke:none"
             d="m 0,0 h -18.505 c -3.313,0 -6,2.687 -6,6 v 18.504 c 0,3.314 2.687,6 6,6 H 0 c 3.313,0 6,-2.686 6,-6 V 6 C 6,2.687 3.313,0 0,0" /></g><g
           transform="translate(37.0918,89.209)"
           id="g40"><path
             id="path42"
             style="fill:#191919;fill-opacity:1;fill-rule:nonzero;stroke:none"
             d="m 0,0 h -18.505 c -3.313,0 -6,2.687 -6,6 v 18.505 c 0,3.313 2.687,6 6,6 H 0 c 3.313,0 6,-2.687 6,-6 V 6 C 6,2.687 3.313,0 0,0" /></g><g
           transform="translate(37.0918,37.6914)"
           id="g44"><path
             id="path46"
             style="fill:#191919;fill-opacity:1;fill-rule:nonzero;stroke:none"
             d="m 0,0 h -18.505 c -3.313,0 -6,2.687 -6,6 v 18.505 c 0,3.313 2.687,6 6,6 H 0 c 3.313,0 6,-2.687 6,-6 V 6 C 6,2.687 3.313,0 0,0" /></g><g
           transform="translate(37.0918,-13.8252)"
           id="g48"><path
             id="path50"
             style="fill:#191919;fill-opacity:1;fill-rule:nonzero;stroke:none"
             d="m 0,0 h -18.505 c -3.313,0 -6,2.686 -6,6 v 18.504 c 0,3.314 2.687,6 6,6 H 0 c 3.313,0 6,-2.686 6,-6 V 6 C 6,2.686 3.313,0 0,0" /></g><g
           transform="translate(37.0918,295.2783)"
           id="g52"><path
             id="path54"
             style="fill:#191919;fill-opacity:1;fill-rule:nonzero;stroke:none"
             d="m 0,0 h -18.505 c -3.313,0 -6,2.687 -6,6 v 18.505 c 0,3.313 2.687,6 6,6 H 0 c 3.313,0 6,-2.687 6,-6 V 6 C 6,2.687 3.313,0 0,0" /></g><g
           transform="translate(294.0713)"
           id="g56"><path
             id="path58"
             style="fill:#111111;fill-opacity:1;fill-rule:nonzero;stroke:none"
             d="M 0,0 H -49.679 V 300 H 0 c 3.313,0 6,-2.687 6,-6 V 6 C 6,2.687 3.313,0 0,0" /></g><g
           transform="translate(281.4844,295.2783)"
           id="g60"><path
             id="path62"
             style="fill:#191919;fill-opacity:1;fill-rule:nonzero;stroke:none"
             d="m 0,0 h -18.505 c -3.313,0 -6,2.687 -6,6 v 18.505 c 0,3.313 2.687,6 6,6 H 0 c 3.313,0 6,-2.687 6,-6 V 6 C 6,2.687 3.313,0 0,0" /></g><g
           transform="translate(281.4844,243.7612)"
           id="g64"><path
             id="path66"
             style="fill:#191919;fill-opacity:1;fill-rule:nonzero;stroke:none"
             d="m 0,0 h -18.505 c -3.313,0 -6,2.686 -6,6 v 18.504 c 0,3.314 2.687,6 6,6 H 0 c 3.313,0 6,-2.686 6,-6 V 6 C 6,2.686 3.313,0 0,0" /></g><g
           transform="translate(281.4844,192.2437)"
           id="g68"><path
             id="path70"
             style="fill:#191919;fill-opacity:1;fill-rule:nonzero;stroke:none"
             d="m 0,0 h -18.505 c -3.313,0 -6,2.687 -6,6 v 18.505 c 0,3.313 2.687,6 6,6 H 0 c 3.313,0 6,-2.687 6,-6 V 6 C 6,2.687 3.313,0 0,0" /></g><g
           transform="translate(281.4844,140.7266)"
           id="g72"><path
             id="path74"
             style="fill:#191919;fill-opacity:1;fill-rule:nonzero;stroke:none"
             d="m 0,0 h -18.505 c -3.313,0 -6,2.687 -6,6 v 18.504 c 0,3.314 2.687,6 6,6 H 0 c 3.313,0 6,-2.686 6,-6 V 6 C 6,2.687 3.313,0 0,0" /></g><g
           transform="translate(281.4844,89.209)"
           id="g76"><path
             id="path78"
             style="fill:#191919;fill-opacity:1;fill-rule:nonzero;stroke:none"
             d="m 0,0 h -18.505 c -3.313,0 -6,2.687 -6,6 v 18.505 c 0,3.313 2.687,6 6,6 H 0 c 3.313,0 6,-2.687 6,-6 V 6 C 6,2.687 3.313,0 0,0" /></g><g
           transform="translate(281.4844,37.6914)"
           id="g80"><path
             id="path82"
             style="fill:#191919;fill-opacity:1;fill-rule:nonzero;stroke:none"
             d="m 0,0 h -18.505 c -3.313,0 -6,2.687 -6,6 v 18.505 c 0,3.313 2.687,6 6,6 H 0 c 3.313,0 6,-2.687 6,-6 V 6 C 6,2.687 3.313,0 0,0" /></g><g
           transform="translate(281.4844,-13.8252)"
           id="g84"><path
             id="path86"
             style="fill:#191919;fill-opacity:1;fill-rule:nonzero;stroke:none"
             d="m 0,0 h -18.505 c -3.313,0 -6,2.686 -6,6 v 18.504 c 0,3.314 2.687,6 6,6 H 0 c 3.313,0 6,-2.686 6,-6 V 6 C 6,2.686 3.313,0 0,0" /></g></g></g><g
       id="g88"><g
         clip-path="url(#clipPath94)"
         id="g90"><g
           id="g96"><g
             id="g98"><path
               id="path106"
               style="fill:url(#linearGradient104);stroke:none"
               d="m 186.724,157.225 h 26.043 v -5.064 h -26.043 z m -4.5,10.61 H 156.18 v 5.064 h 26.044 z m 0,-16.004 H 156.18 v 5.064 h 26.044 z m 0,-16.005 H 156.18 v 5.063 h 26.044 z m -1.184,50.795 -55.368,32.018 v -29.735 h 25.518 v -5.064 h -25.518 v -10.941 h 25.518 v -5.064 h -25.518 v -10.94 h 25.518 v -5.064 h -25.541 l -0.09,-10.941 h 25.631 v -5.064 h -25.673 l -0.09,-10.941 h 25.763 v -5.064 h -25.804 l -0.24,-29.074 55.842,31.929 55.405,31.928 z" /></g></g></g></g><path
       id="path108"
       style="fill:#3f51b5;fill-opacity:1;fill-rule:nonzero;stroke:none"
       d="M 120.157,168.166 H 94.114 v 5.064 h 26.043 z" /><path
       id="path110"
       style="fill:#3f51b5;fill-opacity:1;fill-rule:nonzero;stroke:none"
       d="M 120.157,152.161 H 94.114 v 5.064 h 26.043 z" /><path
       id="path112"
       style="fill:#3f51b5;fill-opacity:1;fill-rule:nonzero;stroke:none"
       d="M 120.157,136.156 H 94.114 v 5.063 h 26.043 z" /><path
       id="path114"
       style="fill:#3f51b5;fill-opacity:1;fill-rule:nonzero;stroke:none"
       d="M 89.124,151.831 H 63.081 v 5.064 h 26.043 z" /><g
       id="g116"><g
         clip-path="url(#clipPath122)"
         id="g118"><g
           id="g124"><g
             id="g126"><path
               id="path136"
               style="fill:url(#linearGradient134);stroke:none"
               d="m 108.268,45.265 c -0.195,-0.017 -0.461,-0.085 -0.8,-0.204 v 0 c -0.254,-0.084 -0.482,-0.168 -0.686,-0.254 v 0 c -0.186,-0.084 -0.351,-0.164 -0.495,-0.241 v 0 c -0.144,-0.075 -0.215,-0.155 -0.215,-0.241 v 0 c -0.407,-0.999 -0.767,-1.926 -1.079,-2.78 v 0 c -0.314,-0.854 -0.571,-1.604 -0.775,-2.247 v 0 c -0.254,-0.746 -0.466,-1.43 -0.634,-2.057 v 0 c -0.525,-1.489 -0.924,-2.916 -1.194,-4.279 v 0 c -0.271,-1.361 -0.524,-2.585 -0.762,-3.668 v 0 c -0.118,-0.542 -0.249,-1.079 -0.393,-1.613 v 0 c -0.144,-0.533 -0.292,-1.027 -0.445,-1.485 v 0 c -0.152,-0.457 -0.296,-0.859 -0.431,-1.206 v 0 c -0.136,-0.346 -0.254,-0.605 -0.355,-0.775 v 0 C 99.919,24.047 99.83,23.902 99.737,23.784 v 0 C 99.644,23.666 99.554,23.606 99.47,23.606 v 0 c -0.084,0 -0.178,0.08 -0.279,0.241 v 0 c -0.102,0.161 -0.195,0.39 -0.279,0.686 v 0 c -0.085,0.296 -0.149,0.652 -0.191,1.067 v 0 c -0.041,0.414 -0.046,0.875 -0.013,1.384 v 0 c 0.052,0.592 0.17,1.235 0.356,1.929 v 0 c 0.186,0.694 0.465,1.431 0.838,2.209 v 0 c 0.135,0.271 0.271,0.525 0.406,0.761 v 0 c 0.136,0.238 0.186,0.449 0.153,0.636 v 0 c -0.017,0.05 -0.052,0.11 -0.102,0.177 v 0 c -0.051,0.051 -0.119,0.098 -0.203,0.14 v 0 c -0.085,0.042 -0.195,0.08 -0.331,0.114 v 0 C 99.183,32.29 98.671,31.613 98.29,30.919 v 0 C 97.908,30.225 97.626,29.59 97.439,29.014 v 0 c -0.22,-0.676 -0.372,-1.328 -0.457,-1.955 v 0 c -0.067,-0.812 -0.067,-1.561 0,-2.247 v 0 c 0.068,-0.685 0.224,-1.269 0.47,-1.751 v 0 c 0.246,-0.483 0.583,-0.851 1.015,-1.105 v 0 c 0.432,-0.254 0.978,-0.372 1.638,-0.355 v 0 c 0.643,0.016 1.168,0.292 1.574,0.825 v 0 c 0.406,0.533 0.736,1.185 0.99,1.955 v 0 c 0.254,0.77 0.466,1.587 0.635,2.45 v 0 c 0.169,0.863 0.338,1.634 0.508,2.311 v 0 c 0.102,0.422 0.237,0.986 0.406,1.688 v 0 c 0.169,0.702 0.351,1.469 0.546,2.298 v 0 c 0.195,0.829 0.397,1.692 0.61,2.589 v 0 c 0.211,0.899 0.418,1.753 0.622,2.565 v 0 c 0.203,0.813 0.398,1.553 0.584,2.222 v 0 c 0.185,0.669 0.355,1.198 0.507,1.587 v 0 c 0.034,-0.237 0.068,-0.496 0.102,-0.775 v 0 c 0.033,-0.279 0.042,-0.587 0.025,-0.927 v 0 c 0,-0.456 -0.034,-1.002 -0.101,-1.637 v 0 c -0.068,-0.635 -0.14,-1.316 -0.216,-2.044 v 0 c -0.076,-0.728 -0.152,-1.489 -0.228,-2.285 v 0 c -0.077,-0.796 -0.131,-1.583 -0.166,-2.361 v 0 c -0.067,-1.574 -0.017,-2.904 0.152,-3.986 v 0 c 0.17,-1.084 0.356,-1.812 0.559,-2.185 v 0 c 0.204,-0.406 0.5,-0.609 0.889,-0.609 v 0 c 0.101,0 0.208,0.017 0.317,0.051 v 0 c 0.11,0.034 0.241,0.076 0.394,0.127 v 0 l 1.016,0.787 c -0.034,0.118 -0.055,0.245 -0.064,0.381 v 0 c -0.008,0.135 -0.013,0.254 -0.013,0.356 v 0 0.355 c 0.034,0.355 0.157,0.863 0.368,1.523 v 0 c 0.212,0.661 0.478,1.406 0.8,2.235 v 0 c 0.322,0.829 0.686,1.704 1.092,2.628 v 0 c 0.406,0.922 0.821,1.824 1.244,2.703 v 0 c 0.255,0.543 0.521,1.106 0.8,1.689 v 0 c 0.279,0.584 0.554,1.146 0.825,1.689 v 0 c 0.271,0.542 0.529,1.049 0.774,1.523 v 0 c 0.246,0.473 0.453,0.88 0.623,1.219 v 0 c -0.034,-0.135 -0.064,-0.292 -0.089,-0.47 v 0 c -0.025,-0.178 -0.055,-0.368 -0.089,-0.571 v 0 c -0.05,-0.254 -0.177,-0.787 -0.381,-1.6 v 0 C 115.517,39.095 115.276,38.126 114.997,37 v 0 c -0.279,-1.126 -0.576,-2.327 -0.889,-3.605 v 0 c -0.314,-1.278 -0.601,-2.505 -0.864,-3.682 v 0 c -0.262,-1.177 -0.487,-2.231 -0.672,-3.161 v 0 c -0.186,-0.931 -0.297,-1.6 -0.33,-2.006 v 0 c -0.034,-0.44 0,-0.842 0.101,-1.206 v 0 c 0.102,-0.365 0.262,-0.677 0.483,-0.94 v 0 c 0.219,-0.263 0.49,-0.465 0.813,-0.609 v 0 c 0.321,-0.143 0.693,-0.207 1.116,-0.19 v 0 c 0.389,0 0.788,0.067 1.194,0.202 v 0 c 0.406,0.136 0.821,0.348 1.244,0.636 v 0 c -0.322,-0.034 -0.602,-0.009 -0.838,0.075 v 0 c -0.237,0.086 -0.44,0.216 -0.61,0.395 v 0 c -0.169,0.177 -0.304,0.384 -0.405,0.622 v 0 c -0.102,0.236 -0.179,0.482 -0.229,0.736 v 0 c -0.136,0.593 -0.186,1.278 -0.152,2.056 v 0 c 0.05,0.695 0.165,1.549 0.343,2.564 v 0 c 0.177,1.016 0.384,2.105 0.622,3.264 v 0 c 0.236,1.159 0.486,2.339 0.748,3.541 v 0 c 0.262,1.203 0.508,2.332 0.737,3.39 v 0 c 0.228,1.058 0.423,2.002 0.584,2.831 v 0 c 0.16,0.829 0.257,1.447 0.291,1.854 v 0 c 0.034,0.338 0.043,0.588 0.026,0.749 v 0 c -0.017,0.161 -0.043,0.275 -0.076,0.343 v 0 c -0.017,0.034 -0.072,0.092 -0.165,0.177 v 0 c -0.093,0.086 -0.25,0.152 -0.47,0.203 v 0 c -0.085,0.035 -0.25,0.029 -0.495,-0.012 v 0 c -0.245,-0.043 -0.508,-0.114 -0.787,-0.216 v 0 c -0.279,-0.102 -0.542,-0.22 -0.788,-0.356 v 0 c -0.244,-0.136 -0.418,-0.288 -0.52,-0.457 v 0 c -0.136,-0.238 -0.352,-0.66 -0.647,-1.269 v 0 c -0.297,-0.61 -0.618,-1.279 -0.965,-2.006 v 0 c -0.347,-0.728 -0.69,-1.456 -1.028,-2.183 v 0 c -0.339,-0.728 -0.61,-1.33 -0.813,-1.803 v 0 c -0.136,-0.356 -0.321,-0.8 -0.558,-1.334 v 0 c -0.238,-0.533 -0.491,-1.108 -0.762,-1.726 v 0 c -0.271,-0.618 -0.542,-1.261 -0.813,-1.93 v 0 c -0.271,-0.668 -0.517,-1.307 -0.736,-1.917 v 0 c -0.035,0.238 -0.063,0.479 -0.089,0.724 v 0 c -0.026,0.245 -0.038,0.512 -0.038,0.8 v 0 c -0.034,0.542 -0.022,1.222 0.038,2.044 v 0 c 0.059,0.821 0.127,1.663 0.203,2.526 v 0 c 0.077,0.863 0.149,1.689 0.216,2.475 v 0 c 0.068,0.788 0.093,1.419 0.077,1.892 v 0 c 0,0.355 -0.009,0.753 -0.026,1.193 v 0 c -0.017,0.373 -0.03,0.804 -0.038,1.296 v 0 c -0.009,0.491 -0.03,1.015 -0.063,1.574 v 0 c 0,0.135 -0.017,0.258 -0.052,0.368 v 0 c -0.034,0.11 -0.101,0.2 -0.202,0.266 v 0 c -0.082,0.054 -0.194,0.081 -0.336,0.081 v 0 c -0.035,0 -0.071,-10e-4 -0.109,-0.004" /></g></g></g></g><g
       id="g138"><g
         clip-path="url(#clipPath144)"
         id="g140"><g
           id="g146"><g
             id="g148"><path
               id="path158"
               style="fill:url(#linearGradient156);stroke:none"
               d="m 122.271,36.543 c -0.322,-0.076 -0.623,-0.187 -0.901,-0.33 v 0 c -0.28,-0.144 -0.525,-0.326 -0.737,-0.546 v 0 c -0.211,-0.22 -0.368,-0.473 -0.47,-0.761 v 0 c -0.287,-0.34 -0.537,-0.711 -0.748,-1.118 v 0 c -0.213,-0.406 -0.385,-0.812 -0.521,-1.219 v 0 c -0.135,-0.406 -0.242,-0.803 -0.317,-1.193 v 0 c -0.077,-0.39 -0.114,-0.745 -0.114,-1.067 v 0 c 0,-0.457 0.021,-0.947 0.062,-1.472 v 0 c 0.044,-0.525 0.162,-1.007 0.356,-1.447 v 0 c 0.194,-0.44 0.491,-0.809 0.889,-1.105 v 0 c 0.397,-0.296 0.943,-0.444 1.637,-0.444 v 0 c 0.593,0 1.139,0.114 1.638,0.343 v 0 c 0.5,0.228 0.948,0.545 1.346,0.952 v 0 c 0.398,0.406 0.741,0.888 1.029,1.447 v 0 c 0.287,0.559 0.515,1.159 0.685,1.803 v 0 c 0.508,0.169 1.041,0.423 1.6,0.761 v 0 c 0.558,0.339 1.074,0.686 1.548,1.042 v 0 c 0.474,0.355 0.884,0.685 1.232,0.989 v 0 c 0.346,0.306 0.562,0.508 0.648,0.61 v 0 c 0.152,0.187 0.245,0.355 0.279,0.508 v 0 c 0.033,0.152 0.025,0.27 -0.026,0.356 v 0 c -0.051,0.084 -0.135,0.118 -0.253,0.101 v 0 c -0.119,-0.017 -0.263,-0.101 -0.432,-0.254 v 0 c -0.204,-0.203 -0.475,-0.431 -0.813,-0.685 v 0 c -0.338,-0.255 -0.707,-0.504 -1.104,-0.75 v 0 c -0.398,-0.245 -0.808,-0.478 -1.231,-0.698 v 0 c -0.424,-0.22 -0.83,-0.406 -1.219,-0.558 v 0 c 0.016,0.136 0.033,0.3 0.05,0.495 v 0 c 0.016,0.194 0.026,0.359 0.026,0.495 v 0 c 0,0.66 -0.11,1.223 -0.331,1.688 v 0 c -0.219,0.466 -0.486,0.851 -0.799,1.156 v 0 c -0.314,0.304 -0.635,0.533 -0.965,0.685 v 0 c -0.33,0.153 -0.605,0.237 -0.825,0.254 v 0 c -0.051,0.017 -0.098,0.035 -0.14,0.051 v 0 c -0.043,0.016 -0.089,0.025 -0.14,0.025 v 0 c -0.304,0 -0.617,-0.038 -0.939,-0.114 m 0.419,-5.028 c -0.296,0.161 -0.512,0.36 -0.647,0.597 v 0 c -0.136,0.238 -0.221,0.504 -0.254,0.8 v 0 c -0.034,0.296 -0.051,0.581 -0.051,0.851 v 0 c 0,0.169 0.025,0.33 0.076,0.482 v 0 c 0.254,0.321 0.528,0.571 0.825,0.749 v 0 c 0.297,0.178 0.605,0.267 0.927,0.267 v 0 c 0.203,0 0.377,-0.089 0.521,-0.267 v 0 c 0.143,-0.178 0.261,-0.406 0.355,-0.685 v 0 c 0.093,-0.28 0.156,-0.589 0.19,-0.927 v 0 c 0.034,-0.339 0.034,-0.669 0,-0.99 v 0 c 0,-0.136 -0.022,-0.293 -0.063,-0.47 v 0 c -0.042,-0.178 -0.089,-0.377 -0.139,-0.597 v 0 c -0.086,-0.017 -0.171,-0.029 -0.254,-0.038 v 0 c -0.086,-0.008 -0.17,-0.013 -0.255,-0.013 v 0 c -0.525,0 -0.935,0.08 -1.231,0.241 m -1.841,-3.986 c -0.169,0.144 -0.305,0.33 -0.406,0.559 v 0 c -0.101,0.229 -0.17,0.491 -0.203,0.787 v 0 c -0.034,0.296 -0.051,0.596 -0.051,0.902 v 0 c 0,0.304 0.034,0.625 0.101,0.964 v 0 c 0.068,0.339 0.153,0.686 0.254,1.042 v 0 c 0.254,-0.594 0.614,-1.079 1.079,-1.461 v 0 c 0.466,-0.381 1.02,-0.571 1.663,-0.571 v 0 c 0.136,0 0.259,0.004 0.369,0.013 v 0 c 0.109,0.009 0.224,0.022 0.342,0.038 v 0 c -0.118,-0.322 -0.258,-0.631 -0.418,-0.927 v 0 c -0.161,-0.296 -0.343,-0.558 -0.546,-0.787 v 0 c -0.204,-0.229 -0.432,-0.415 -0.686,-0.559 v 0 c -0.254,-0.143 -0.533,-0.216 -0.838,-0.216 v 0 c -0.271,0 -0.49,0.073 -0.66,0.216" /></g></g></g></g><g
       id="g160"><g
         clip-path="url(#clipPath166)"
         id="g162"><g
           id="g168"><g
             id="g170"><path
               id="path180"
               style="fill:url(#linearGradient178);stroke:none"
               d="m 136.858,36.314 c -0.279,-0.177 -0.55,-0.427 -0.812,-0.749 v 0 c -0.263,-0.321 -0.496,-0.714 -0.699,-1.18 v 0 c -0.203,-0.466 -0.33,-0.987 -0.38,-1.562 v 0 c -0.017,-0.372 0.025,-0.694 0.127,-0.965 v 0 c -0.288,-0.524 -0.597,-1.032 -0.927,-1.523 v 0 c -0.331,-0.491 -0.644,-0.923 -0.94,-1.295 v 0 c -0.296,-0.372 -0.559,-0.673 -0.788,-0.901 v 0 c -0.227,-0.229 -0.385,-0.343 -0.468,-0.343 v 0 c -0.069,0 -0.162,0.085 -0.28,0.253 v 0 c -0.119,0.17 -0.229,0.42 -0.331,0.75 v 0 c -0.1,0.329 -0.177,0.736 -0.227,1.219 v 0 c -0.052,0.482 -0.052,1.045 0,1.688 v 0 c 0.033,0.372 0.088,0.761 0.164,1.168 v 0 c 0.077,0.406 0.157,0.796 0.242,1.168 v 0 c 0.084,0.372 0.164,0.707 0.241,1.003 v 0 c 0.076,0.296 0.13,0.52 0.164,0.672 v 0 c 0.052,0.17 0.043,0.297 -0.025,0.382 v 0 c -0.067,0.085 -0.164,0.139 -0.291,0.165 v 0 c -0.127,0.025 -0.268,0.029 -0.42,0.012 v 0 C 131.056,36.26 130.92,36.234 130.802,36.2 v 0 c -0.271,-0.067 -0.495,-0.152 -0.673,-0.254 v 0 c -0.177,-0.102 -0.33,-0.263 -0.457,-0.482 v 0 c -0.127,-0.22 -0.232,-0.53 -0.317,-0.926 v 0 c -0.085,-0.398 -0.161,-0.927 -0.228,-1.588 v 0 c -0.052,-0.66 -0.055,-1.409 -0.013,-2.246 v 0 c 0.041,-0.838 0.152,-1.626 0.329,-2.362 v 0 c 0.179,-0.736 0.432,-1.355 0.763,-1.854 v 0 c 0.33,-0.499 0.757,-0.749 1.282,-0.749 v 0 c 0.22,0 0.511,0.149 0.876,0.445 v 0 c 0.363,0.296 0.761,0.686 1.193,1.168 v 0 c 0.431,0.482 0.88,1.028 1.346,1.637 v 0 c 0.465,0.609 0.918,1.236 1.358,1.879 v 0 c 0.169,-0.05 0.33,-0.084 0.482,-0.102 v 0 c 0.153,-0.016 0.28,-0.025 0.382,-0.025 v 0 c 1.167,0 2.187,0.229 3.059,0.686 v 0 c 0.872,0.456 1.613,1.058 2.222,1.803 v 0 c 0.101,0.118 0.152,0.228 0.152,0.329 v 0 c 0,0.102 -0.034,0.178 -0.102,0.229 v 0 c -0.067,0.051 -0.152,0.076 -0.253,0.076 v 0 c -0.102,0 -0.204,-0.05 -0.305,-0.152 v 0 c -0.153,-0.136 -0.351,-0.308 -0.597,-0.521 v 0 c -0.245,-0.211 -0.542,-0.409 -0.888,-0.597 v 0 c -0.348,-0.186 -0.754,-0.346 -1.219,-0.482 v 0 c -0.466,-0.135 -0.986,-0.202 -1.562,-0.202 v 0 c -0.135,0 -0.253,0.016 -0.355,0.05 v 0 c -0.102,0.034 -0.195,0.067 -0.279,0.102 v 0 c 0.439,0.727 0.799,1.4 1.079,2.018 v 0 c 0.279,0.619 0.435,1.105 0.469,1.46 v 0 c 0.034,0.238 -0.004,0.47 -0.114,0.698 v 0 c -0.11,0.229 -0.386,0.343 -0.825,0.343 v 0 c -0.22,0 -0.47,-0.089 -0.749,-0.267" /></g></g></g></g><g
       id="g182"><g
         clip-path="url(#clipPath188)"
         id="g184"><g
           id="g190"><g
             id="g192"><path
               id="path202"
               style="fill:url(#linearGradient200);stroke:none"
               d="m 144.716,43.03 c -0.186,-0.034 -0.405,-0.149 -0.66,-0.342 v 0 c -0.254,-0.195 -0.466,-0.432 -0.635,-0.711 v 0 c -0.169,-0.28 -0.245,-0.575 -0.228,-0.889 v 0 c 0.017,-0.313 0.203,-0.606 0.559,-0.876 v 0 c 0.117,-0.102 0.27,-0.136 0.457,-0.102 v 0 c 0.185,0.035 0.368,0.106 0.545,0.216 v 0 c 0.178,0.11 0.339,0.254 0.483,0.431 v 0 c 0.144,0.179 0.241,0.36 0.292,0.547 v 0 c 0.05,0.169 0.071,0.364 0.063,0.584 v 0 c -0.009,0.219 -0.047,0.418 -0.114,0.596 v 0 c -0.068,0.178 -0.165,0.322 -0.292,0.432 v 0 c -0.097,0.084 -0.211,0.126 -0.342,0.126 v 0 c -0.041,0 -0.083,-0.004 -0.128,-0.012 m -0.775,-6.639 c -0.211,-0.009 -0.443,-0.035 -0.697,-0.077 v 0 c -0.255,-0.041 -0.5,-0.097 -0.737,-0.165 v 0 c -0.237,-0.067 -0.398,-0.152 -0.483,-0.253 v 0 c -0.27,-0.34 -0.512,-0.855 -0.723,-1.549 v 0 c -0.212,-0.695 -0.385,-1.426 -0.52,-2.196 v 0 c -0.136,-0.771 -0.229,-1.524 -0.279,-2.26 v 0 c -0.052,-0.736 -0.052,-1.317 0,-1.74 v 0 c 0.016,-0.288 0.101,-0.562 0.253,-0.825 v 0 c 0.153,-0.262 0.343,-0.491 0.572,-0.685 v 0 c 0.229,-0.194 0.482,-0.347 0.761,-0.457 v 0 c 0.279,-0.111 0.563,-0.157 0.851,-0.14 v 0 c 0.355,0.016 0.816,0.237 1.384,0.66 v 0 c 0.566,0.423 1.146,0.936 1.739,1.536 v 0 c 0.592,0.6 1.151,1.228 1.676,1.879 v 0 c 0.524,0.651 0.922,1.215 1.193,1.689 v 0 c 0.118,0.202 0.174,0.381 0.165,0.533 v 0 c -0.008,0.153 -0.06,0.262 -0.152,0.33 v 0 c -0.093,0.067 -0.212,0.076 -0.356,0.025 v 0 c -0.144,-0.05 -0.283,-0.161 -0.418,-0.33 v 0 c -0.221,-0.322 -0.559,-0.749 -1.016,-1.282 v 0 c -0.458,-0.533 -0.953,-1.057 -1.485,-1.574 v 0 c -0.534,-0.517 -1.059,-0.961 -1.575,-1.333 v 0 c -0.516,-0.372 -0.944,-0.559 -1.282,-0.559 v 0 c -0.119,0 -0.229,0.038 -0.33,0.115 v 0 c -0.102,0.075 -0.195,0.216 -0.279,0.418 v 0 c -0.085,0.169 -0.111,0.415 -0.077,0.736 v 0 c 0.034,0.322 0.097,0.664 0.191,1.029 v 0 c 0.093,0.365 0.199,0.736 0.318,1.117 v 0 c 0.118,0.382 0.219,0.724 0.304,1.029 v 0 c 0.084,0.304 0.211,0.698 0.381,1.18 v 0 c 0.169,0.483 0.33,0.953 0.482,1.41 v 0 c 0.153,0.456 0.28,0.854 0.381,1.192 v 0 c 0.101,0.34 0.144,0.517 0.128,0.534 v 0 c -0.024,0.011 -0.087,0.017 -0.191,0.017 v 0 c -0.05,0 -0.11,-0.001 -0.179,-0.004" /></g></g></g></g><g
       id="g204"><g
         clip-path="url(#clipPath210)"
         id="g206"><g
           id="g212"><g
             id="g214"><path
               id="path224"
               style="fill:url(#linearGradient222);stroke:none"
               d="m 150.772,36.353 c -0.669,-0.423 -1.269,-0.957 -1.803,-1.6 v 0 c -0.533,-0.644 -0.982,-1.349 -1.346,-2.12 v 0 c -0.364,-0.77 -0.579,-1.502 -0.647,-2.197 v 0 c -0.084,-0.846 -0.021,-1.565 0.19,-2.158 v 0 c 0.212,-0.592 0.495,-1.075 0.851,-1.447 v 0 c 0.355,-0.372 0.749,-0.647 1.18,-0.826 v 0 c 0.433,-0.177 0.834,-0.266 1.207,-0.266 v 0 c 0.711,0 1.443,0.169 2.196,0.508 v 0 c 0.753,0.339 1.489,0.784 2.209,1.334 v 0 c 0.719,0.549 1.4,1.176 2.044,1.878 v 0 c 0.643,0.702 1.219,1.425 1.726,2.171 v 0 c 0.118,0.187 0.177,0.352 0.177,0.495 v 0 c 0,0.144 -0.037,0.245 -0.113,0.305 v 0 c -0.077,0.059 -0.178,0.076 -0.305,0.05 v 0 c -0.127,-0.025 -0.25,-0.105 -0.368,-0.241 v 0 c -0.34,-0.406 -0.766,-0.888 -1.283,-1.447 v 0 c -0.516,-0.558 -1.074,-1.096 -1.676,-1.612 v 0 c -0.6,-0.517 -1.215,-0.956 -1.84,-1.321 v 0 c -0.626,-0.364 -1.228,-0.546 -1.803,-0.546 v 0 c -0.271,0 -0.537,0.039 -0.799,0.115 v 0 c -0.263,0.076 -0.495,0.203 -0.698,0.38 v 0 c -0.204,0.178 -0.373,0.411 -0.508,0.699 v 0 c -0.136,0.288 -0.212,0.643 -0.229,1.066 v 0 c 0.254,0.186 0.55,0.393 0.889,0.622 v 0 c 0.338,0.229 0.694,0.47 1.066,0.724 v 0 c 0.339,0.237 0.698,0.499 1.079,0.787 v 0 c 0.381,0.288 0.74,0.609 1.079,0.965 v 0 c 0.339,0.355 0.631,0.753 0.876,1.193 v 0 c 0.245,0.44 0.393,0.923 0.445,1.448 v 0 c 0.034,0.473 -0.094,0.872 -0.382,1.193 v 0 c -0.288,0.321 -0.752,0.482 -1.396,0.482 v 0 c -0.677,0 -1.35,-0.211 -2.018,-0.634 m -1.003,-3.391 c 0.237,0.55 0.49,1.017 0.761,1.397 v 0 c 0.271,0.381 0.546,0.674 0.826,0.876 v 0 c 0.279,0.203 0.52,0.305 0.723,0.305 v 0 c 0.187,0 0.331,-0.072 0.431,-0.216 v 0 c 0.102,-0.143 0.136,-0.377 0.102,-0.698 v 0 c -0.034,-0.304 -0.194,-0.669 -0.482,-1.092 v 0 c -0.288,-0.423 -0.796,-0.914 -1.523,-1.472 v 0 c -0.238,-0.187 -0.474,-0.36 -0.711,-0.521 v 0 c -0.238,-0.161 -0.457,-0.317 -0.66,-0.469 v 0 c 0.118,0.711 0.295,1.341 0.533,1.89" /></g></g></g></g><g
       id="g226"><g
         clip-path="url(#clipPath232)"
         id="g228"><g
           id="g234"><g
             id="g236"><path
               id="path246"
               style="fill:url(#linearGradient244);stroke:none"
               d="m 164.317,44.77 c -0.948,-0.517 -1.811,-1.197 -2.59,-2.044 v 0 c -0.778,-0.847 -1.469,-1.825 -2.069,-2.933 v 0 c -0.6,-1.108 -1.113,-2.259 -1.536,-3.453 v 0 c -0.423,-1.193 -0.749,-2.383 -0.977,-3.567 v 0 c -0.229,-1.185 -0.36,-2.285 -0.394,-3.302 v 0 c -0.033,-1.082 0.072,-2.103 0.317,-3.059 v 0 c 0.246,-0.956 0.609,-1.79 1.093,-2.501 v 0 c 0.482,-0.711 1.065,-1.27 1.751,-1.676 v 0 c 0.686,-0.406 1.452,-0.609 2.298,-0.609 v 0 c 0.676,0 1.32,0.143 1.929,0.431 v 0 c 0.61,0.289 1.172,0.664 1.689,1.131 v 0 c 0.516,0.465 0.982,0.986 1.397,1.561 v 0 c 0.414,0.575 0.765,1.151 1.053,1.726 v 0 c 0.102,0.22 0.136,0.411 0.102,0.572 v 0 c -0.034,0.161 -0.102,0.279 -0.203,0.355 v 0 c -0.102,0.077 -0.22,0.089 -0.356,0.038 v 0 c -0.136,-0.05 -0.263,-0.186 -0.381,-0.406 v 0 c -0.169,-0.305 -0.41,-0.656 -0.723,-1.054 v 0 c -0.313,-0.397 -0.686,-0.783 -1.117,-1.154 v 0 c -0.432,-0.373 -0.911,-0.686 -1.435,-0.94 v 0 c -0.524,-0.254 -1.083,-0.381 -1.675,-0.381 v 0 c -0.373,0 -0.746,0.093 -1.118,0.279 v 0 c -0.372,0.187 -0.707,0.492 -1.003,0.914 v 0 c -0.296,0.423 -0.525,0.965 -0.686,1.625 v 0 c -0.161,0.661 -0.224,1.465 -0.19,2.412 v 0 c 0.085,2.099 0.385,4.088 0.901,5.967 v 0 c 0.517,1.879 1.152,3.526 1.905,4.939 v 0 c 0.753,1.412 1.57,2.535 2.45,3.364 v 0 c 0.88,0.829 1.718,1.244 2.513,1.244 v 0 c 0.407,0 0.772,-0.161 1.093,-0.482 v 0 c 0.321,-0.321 0.465,-0.83 0.431,-1.524 v 0 c -0.05,-0.711 -0.152,-1.354 -0.304,-1.929 v 0 c -0.136,-0.508 -0.334,-0.995 -0.597,-1.46 v 0 c -0.263,-0.466 -0.623,-0.791 -1.079,-0.978 v 0 c 0.152,-0.39 0.317,-0.685 0.495,-0.889 v 0 c 0.177,-0.203 0.351,-0.355 0.52,-0.457 v 0 c 0.186,-0.118 0.381,-0.186 0.584,-0.203 v 0 c 0.423,0 0.8,0.123 1.13,0.369 v 0 c 0.33,0.245 0.609,0.575 0.838,0.99 v 0 c 0.228,0.415 0.406,0.884 0.533,1.409 v 0 c 0.127,0.524 0.207,1.066 0.242,1.625 v 0 c 0.016,0.593 -0.035,1.177 -0.153,1.752 v 0 c -0.118,0.575 -0.326,1.092 -0.622,1.549 v 0 c -0.296,0.456 -0.685,0.825 -1.168,1.104 v 0 c -0.482,0.279 -1.071,0.419 -1.765,0.419 v 0 c -1.133,0 -2.175,-0.258 -3.123,-0.774" /></g></g></g></g><g
       id="g248"><g
         clip-path="url(#clipPath254)"
         id="g250"><g
           id="g256"><g
             id="g258"><path
               id="path268"
               style="fill:url(#linearGradient266);stroke:none"
               d="m 175.464,36.632 c -0.593,-0.305 -1.193,-0.758 -1.803,-1.358 v 0 c -0.609,-0.601 -1.171,-1.325 -1.688,-2.171 v 0 c -0.517,-0.847 -0.893,-1.787 -1.131,-2.819 v 0 c -0.185,-0.761 -0.253,-1.417 -0.202,-1.967 v 0 c 0.05,-0.55 0.169,-0.999 0.355,-1.347 v 0 c 0.187,-0.346 0.415,-0.6 0.685,-0.761 v 0 c 0.271,-0.161 0.525,-0.241 0.763,-0.241 v 0 c 0.507,0.034 1.015,0.144 1.522,0.33 v 0 c 0.441,0.169 0.906,0.436 1.397,0.8 v 0 c 0.492,0.364 0.94,0.885 1.346,1.562 v 0 c -0.016,-0.458 0.012,-0.838 0.089,-1.143 v 0 c 0.076,-0.305 0.157,-0.55 0.241,-0.737 v 0 c 0.102,-0.219 0.229,-0.389 0.381,-0.507 v 0 c 0.152,-0.102 0.33,-0.175 0.533,-0.216 v 0 c 0.203,-0.043 0.42,-0.055 0.648,-0.038 v 0 c 0.229,0.016 0.454,0.059 0.673,0.127 v 0 c 0.22,0.066 0.416,0.152 0.583,0.254 v 0 c 0.255,0.168 0.572,0.461 0.954,0.875 v 0 c 0.381,0.415 0.769,0.873 1.167,1.371 v 0 c 0.397,0.5 0.783,0.999 1.155,1.499 v 0 c 0.373,0.498 0.678,0.918 0.914,1.256 v 0 c 0.203,0.271 0.326,0.509 0.369,0.711 v 0 c 0.041,0.203 0.029,0.355 -0.039,0.457 v 0 c -0.067,0.102 -0.168,0.14 -0.304,0.115 v 0 c -0.135,-0.026 -0.27,-0.115 -0.407,-0.267 v 0 c -0.102,-0.136 -0.266,-0.346 -0.494,-0.634 v 0 c -0.229,-0.289 -0.486,-0.619 -0.775,-0.991 v 0 C 182.109,30.42 181.8,30.034 181.47,29.637 v 0 c -0.331,-0.398 -0.648,-0.762 -0.953,-1.092 v 0 c -0.305,-0.33 -0.593,-0.601 -0.863,-0.812 v 0 c -0.271,-0.213 -0.491,-0.318 -0.661,-0.318 v 0 c -0.203,0 -0.359,0.047 -0.469,0.139 v 0 c -0.111,0.093 -0.191,0.216 -0.242,0.369 v 0 c -0.051,0.153 -0.08,0.317 -0.087,0.495 v 0 c -0.01,0.178 -0.005,0.342 0.011,0.495 v 0 c 0.051,0.254 0.094,0.466 0.127,0.635 v 0 c 0.035,0.169 0.064,0.318 0.09,0.445 v 0 l 0.076,0.38 c 0.025,0.127 0.055,0.267 0.088,0.419 v 0 c 0.17,0.778 0.304,1.413 0.406,1.904 v 0 c 0.102,0.492 0.178,0.88 0.228,1.168 v 0 c 0.052,0.288 0.077,0.486 0.077,0.597 v 0 c 0,0.111 -0.008,0.182 -0.025,0.216 v 0 c -0.033,0.016 -0.102,0.025 -0.204,0.025 v 0 c -0.083,0 -0.207,-0.009 -0.367,-0.025 v 0 c -0.162,-0.017 -0.359,-0.051 -0.597,-0.102 v 0 c 0.355,0.542 0.495,0.978 0.419,1.308 v 0 c -0.076,0.33 -0.232,0.58 -0.471,0.749 v 0 c -0.287,0.186 -0.659,0.321 -1.117,0.406 v 0 c -0.039,0.003 -0.079,0.005 -0.121,0.005 v 0 c -0.368,0 -0.819,-0.137 -1.351,-0.411 m -2.31,-8.43 c -0.102,0.102 -0.17,0.317 -0.204,0.648 v 0 c -0.034,0.33 -0.021,0.714 0.038,1.155 v 0 c 0.06,0.44 0.166,0.91 0.318,1.41 v 0 c 0.152,0.498 0.355,0.968 0.609,1.408 v 0 c 0.609,1.066 1.147,1.799 1.612,2.197 v 0 c 0.466,0.397 0.791,0.52 0.978,0.368 v 0 c 0.051,-0.068 0.085,-0.161 0.101,-0.28 v 0 c 0.017,-0.102 0.013,-0.241 -0.013,-0.418 v 0 c -0.025,-0.179 -0.105,-0.403 -0.241,-0.674 v 0 c 0.136,0.035 0.271,0.06 0.407,0.077 v 0 c 0.135,0.016 0.246,0.042 0.33,0.076 v 0 c 0.101,0.034 0.195,0.06 0.279,0.076 v 0 c 0.069,0.017 0.081,-0.114 0.039,-0.393 v 0 c -0.043,-0.279 -0.105,-0.631 -0.192,-1.054 v 0 c -0.083,-0.423 -0.185,-0.863 -0.304,-1.321 v 0 c -0.118,-0.457 -0.219,-0.854 -0.305,-1.193 v 0 c -0.016,-0.085 -0.088,-0.22 -0.215,-0.406 v 0 c -0.127,-0.187 -0.289,-0.39 -0.482,-0.609 v 0 c -0.195,-0.221 -0.416,-0.432 -0.661,-0.636 v 0 c -0.245,-0.202 -0.491,-0.368 -0.736,-0.494 v 0 c -0.245,-0.127 -0.486,-0.195 -0.724,-0.204 v 0 c -0.01,0 -0.02,0 -0.03,0 v 0 c -0.225,0 -0.426,0.088 -0.604,0.267" /></g></g></g></g><g
       id="g270"><g
         clip-path="url(#clipPath276)"
         id="g272"><g
           id="g278"><g
             id="g280"><path
               id="path290"
               style="fill:url(#linearGradient288);stroke:none"
               d="m 186.814,37.761 c -0.339,-0.127 -0.67,-0.316 -0.991,-0.57 v 0 c -0.321,-0.254 -0.6,-0.538 -0.838,-0.851 v 0 c -0.237,-0.314 -0.39,-0.588 -0.457,-0.825 v 0 c -0.085,-0.288 -0.063,-0.542 0.064,-0.762 v 0 c 0.127,-0.22 0.174,-0.397 0.139,-0.533 v 0 c -0.016,-0.051 -0.11,-0.199 -0.279,-0.445 v 0 c -0.169,-0.245 -0.355,-0.524 -0.559,-0.838 v 0 c -0.203,-0.313 -0.405,-0.618 -0.609,-0.913 v 0 c -0.203,-0.296 -0.355,-0.512 -0.457,-0.648 v 0 c -0.136,-0.203 -0.199,-0.377 -0.19,-0.52 v 0 c 0.008,-0.144 0.054,-0.254 0.139,-0.331 v 0 c 0.085,-0.076 0.19,-0.101 0.317,-0.076 v 0 c 0.128,0.026 0.259,0.114 0.395,0.267 v 0 c 0.084,0.102 0.236,0.292 0.457,0.571 v 0 c 0.219,0.28 0.452,0.584 0.697,0.914 v 0 c 0.246,0.33 0.475,0.647 0.686,0.952 v 0 c 0.212,0.305 0.359,0.525 0.445,0.661 v 0 c 0.034,-0.068 0.08,-0.191 0.139,-0.369 v 0 c 0.059,-0.177 0.123,-0.359 0.191,-0.545 v 0 c 0.066,-0.22 0.152,-0.458 0.254,-0.711 v 0 c 0.118,-0.34 0.262,-0.712 0.431,-1.117 v 0 c 0.169,-0.407 0.327,-0.81 0.47,-1.206 v 0 c 0.144,-0.398 0.25,-0.772 0.317,-1.118 v 0 c 0.068,-0.347 0.068,-0.613 0,-0.799 v 0 c -0.067,-0.188 -0.173,-0.34 -0.317,-0.458 v 0 c -0.143,-0.118 -0.296,-0.212 -0.458,-0.279 v 0 c -0.161,-0.067 -0.321,-0.101 -0.482,-0.101 v 0 c -0.161,0 -0.292,0.034 -0.393,0.101 v 0 c -0.085,0.067 -0.178,0.194 -0.279,0.381 v 0 c -0.086,0.168 -0.195,0.402 -0.331,0.698 v 0 c -0.135,0.296 -0.288,0.707 -0.457,1.232 v 0 c -0.202,-0.068 -0.381,-0.127 -0.533,-0.179 v 0 c -0.153,-0.05 -0.27,-0.101 -0.355,-0.152 v 0 c -0.102,-0.067 -0.186,-0.126 -0.254,-0.178 v 0 c -0.169,-0.152 -0.296,-0.288 -0.381,-0.406 v 0 c -0.085,-0.118 -0.178,-0.279 -0.28,-0.482 v 0 c -0.084,-0.152 -0.072,-0.372 0.038,-0.66 v 0 c 0.111,-0.289 0.28,-0.58 0.509,-0.876 v 0 c 0.228,-0.296 0.507,-0.555 0.838,-0.774 v 0 c 0.329,-0.22 0.672,-0.331 1.027,-0.331 v 0 c 0.509,0 0.995,0.136 1.46,0.406 v 0 c 0.466,0.271 0.88,0.597 1.245,0.979 v 0 c 0.364,0.38 0.669,0.773 0.913,1.179 v 0 c 0.246,0.407 0.395,0.754 0.445,1.042 v 0 c 0.034,0.186 0.009,0.415 -0.076,0.686 v 0 c -0.085,0.269 -0.194,0.562 -0.33,0.875 v 0 c -0.136,0.313 -0.288,0.631 -0.457,0.952 v 0 c -0.169,0.322 -0.33,0.635 -0.482,0.94 v 0 c -0.118,0.238 -0.229,0.499 -0.331,0.787 v 0 c -0.084,0.237 -0.173,0.517 -0.266,0.838 v 0 c -0.093,0.321 -0.165,0.676 -0.216,1.066 v 0 c 0.254,0.305 0.448,0.555 0.584,0.75 v 0 c 0.136,0.194 0.238,0.359 0.305,0.495 v 0 c 0.067,0.136 0.118,0.245 0.152,0.33 v 0 c 0.034,0.168 -0.017,0.334 -0.152,0.495 v 0 c -0.136,0.161 -0.314,0.309 -0.534,0.444 v 0 c -0.139,0.07 -0.288,0.105 -0.446,0.105 v 0 c -0.147,0 -0.303,-0.031 -0.467,-0.093" /></g></g></g></g><g
       id="g292"><g
         clip-path="url(#clipPath298)"
         id="g294"><g
           id="g300"><g
             id="g302"><path
               id="path312"
               style="fill:url(#linearGradient310);stroke:none"
               d="m 196.665,44.312 c -0.203,-0.025 -0.394,-0.067 -0.571,-0.126 v 0 c -0.178,-0.06 -0.292,-0.131 -0.343,-0.217 v 0 c -0.169,-0.236 -0.359,-0.656 -0.572,-1.256 v 0 c -0.211,-0.601 -0.427,-1.308 -0.647,-2.12 v 0 c -0.288,-0.051 -0.58,-0.093 -0.875,-0.127 v 0 c -0.296,-0.034 -0.606,-0.06 -0.927,-0.077 v 0 c -0.441,-0.016 -0.847,-0.012 -1.219,0.013 v 0 c -0.373,0.026 -0.72,0.055 -1.041,0.089 v 0 c -0.102,0 -0.216,-0.047 -0.343,-0.139 v 0 C 190,40.259 189.895,40.148 189.81,40.021 v 0 c -0.085,-0.127 -0.136,-0.254 -0.153,-0.38 v 0 c -0.016,-0.127 0.042,-0.225 0.178,-0.292 v 0 c 0.237,-0.119 0.597,-0.241 1.079,-0.368 v 0 c 0.483,-0.127 0.994,-0.191 1.537,-0.191 v 0 c 0.236,0 0.498,0.016 0.786,0.05 v 0 c 0.288,0.035 0.575,0.068 0.863,0.102 v 0 c -0.236,-0.981 -0.461,-2.001 -0.672,-3.059 v 0 c -0.212,-1.057 -0.402,-2.048 -0.572,-2.971 v 0 c -0.169,-0.922 -0.305,-1.735 -0.405,-2.437 v 0 c -0.102,-0.702 -0.162,-1.19 -0.179,-1.461 v 0 c -0.034,-0.32 -0.009,-0.672 0.077,-1.053 v 0 c 0.085,-0.38 0.232,-0.732 0.444,-1.054 v 0 c 0.212,-0.321 0.504,-0.593 0.876,-0.812 v 0 c 0.372,-0.22 0.838,-0.331 1.396,-0.331 v 0 c 0.39,0 0.872,0.213 1.447,0.636 v 0 c 0.576,0.423 1.168,0.96 1.778,1.612 v 0 c 0.609,0.651 1.19,1.35 1.739,2.095 v 0 c 0.55,0.745 0.994,1.438 1.333,2.082 v 0 c 0.102,0.203 0.149,0.364 0.14,0.482 v 0 c -0.009,0.118 -0.047,0.203 -0.114,0.254 v 0 c -0.068,0.051 -0.157,0.064 -0.267,0.037 v 0 c -0.111,-0.025 -0.199,-0.088 -0.266,-0.189 v 0 c -0.102,-0.136 -0.28,-0.369 -0.534,-0.699 v 0 c -0.254,-0.33 -0.55,-0.698 -0.888,-1.104 v 0 c -0.34,-0.407 -0.708,-0.822 -1.105,-1.245 v 0 c -0.397,-0.422 -0.791,-0.812 -1.18,-1.167 v 0 c -0.39,-0.356 -0.766,-0.639 -1.131,-0.851 v 0 c -0.363,-0.212 -0.672,-0.301 -0.926,-0.267 v 0 c -0.321,0.017 -0.593,0.119 -0.812,0.305 v 0 c -0.187,0.169 -0.343,0.445 -0.47,0.825 v 0 c -0.127,0.381 -0.14,0.936 -0.038,1.664 v 0 c 0.44,1.015 0.838,1.971 1.193,2.869 v 0 c 0.355,0.897 0.66,1.692 0.914,2.387 v 0 c 0.288,0.795 0.542,1.531 0.761,2.208 v 0 c 0.102,0.288 0.182,0.563 0.242,0.826 v 0 c 0.06,0.262 0.123,0.529 0.19,0.799 v 0 c 0.136,0 0.267,0.004 0.393,0.013 v 0 c 0.127,0.008 0.242,0.013 0.343,0.013 v 0 c 0.542,0 1.017,-0.017 1.422,-0.051 v 0 c 0.406,-0.035 0.758,-0.068 1.054,-0.102 v 0 c 0.296,-0.034 0.55,-0.076 0.762,-0.127 v 0 c 0.212,-0.05 0.402,-0.085 0.571,-0.101 v 0 c 0.169,-0.034 0.321,0 0.457,0.101 v 0 c 0.136,0.102 0.233,0.225 0.292,0.368 v 0 c 0.059,0.144 0.086,0.284 0.076,0.42 v 0 c -0.009,0.135 -0.072,0.219 -0.19,0.253 v 0 c -0.118,0.035 -0.296,0.098 -0.533,0.191 v 0 c -0.238,0.093 -0.55,0.186 -0.94,0.279 v 0 c -0.389,0.093 -0.859,0.177 -1.409,0.254 v 0 c -0.55,0.076 -1.181,0.114 -1.892,0.114 v 0 c 0.169,0.863 0.263,1.574 0.28,2.133 v 0 c 0.016,0.558 -0.017,0.906 -0.102,1.041 v 0 c -0.084,0.101 -0.219,0.165 -0.406,0.19 v 0 c -0.093,0.013 -0.189,0.019 -0.286,0.019 v 0 c -0.097,0 -0.196,-0.006 -0.298,-0.019" /></g></g></g></g></g></svg>